<svg xmlns="http://www.w3.org/2000/svg" viewBox="0 0 400 500" width="400" height="500">
  <style>
    .colorable { fill: white; stroke: #333; stroke-width: 2.5; stroke-linecap: round; stroke-linejoin: round; cursor: pointer; }
    .outline { fill: none; stroke: #333; stroke-width: 2.5; stroke-linecap: round; stroke-linejoin: round; }
    .fixed { fill: #333; }
  </style>
  <rect width="400" height="500" fill="#FFFFFF"/>

  <text x="200" y="22" text-anchor="middle" font-family="sans-serif" font-size="13" fill="#888">노란색 = 기쁨과 행복!</text>

  <!-- 큰 해바라기 (가운데) -->
  <!-- 꽃잎 16장 -->
  <g transform="rotate(0,200,240)"><ellipse cx="200" cy="135" rx="18" ry="38" class="colorable" id="petal-0"/></g>
  <g transform="rotate(22.5,200,240)"><ellipse cx="200" cy="135" rx="18" ry="38" class="colorable" id="petal-22"/></g>
  <g transform="rotate(45,200,240)"><ellipse cx="200" cy="135" rx="18" ry="38" class="colorable" id="petal-45"/></g>
  <g transform="rotate(67.5,200,240)"><ellipse cx="200" cy="135" rx="18" ry="38" class="colorable" id="petal-67"/></g>
  <g transform="rotate(90,200,240)"><ellipse cx="200" cy="135" rx="18" ry="38" class="colorable" id="petal-90"/></g>
  <g transform="rotate(112.5,200,240)"><ellipse cx="200" cy="135" rx="18" ry="38" class="colorable" id="petal-112"/></g>
  <g transform="rotate(135,200,240)"><ellipse cx="200" cy="135" rx="18" ry="38" class="colorable" id="petal-135"/></g>
  <g transform="rotate(157.5,200,240)"><ellipse cx="200" cy="135" rx="18" ry="38" class="colorable" id="petal-157"/></g>
  <g transform="rotate(180,200,240)"><ellipse cx="200" cy="135" rx="18" ry="38" class="colorable" id="petal-180"/></g>
  <g transform="rotate(202.5,200,240)"><ellipse cx="200" cy="135" rx="18" ry="38" class="colorable" id="petal-202"/></g>
  <g transform="rotate(225,200,240)"><ellipse cx="200" cy="135" rx="18" ry="38" class="colorable" id="petal-225"/></g>
  <g transform="rotate(247.5,200,240)"><ellipse cx="200" cy="135" rx="18" ry="38" class="colorable" id="petal-247"/></g>
  <g transform="rotate(270,200,240)"><ellipse cx="200" cy="135" rx="18" ry="38" class="colorable" id="petal-270"/></g>
  <g transform="rotate(292.5,200,240)"><ellipse cx="200" cy="135" rx="18" ry="38" class="colorable" id="petal-292"/></g>
  <g transform="rotate(315,200,240)"><ellipse cx="200" cy="135" rx="18" ry="38" class="colorable" id="petal-315"/></g>
  <g transform="rotate(337.5,200,240)"><ellipse cx="200" cy="135" rx="18" ry="38" class="colorable" id="petal-337"/></g>

  <!-- 꽃 중심 -->
  <circle cx="200" cy="240" r="62" class="colorable" id="flower-center-outer"/>
  <circle cx="200" cy="240" r="48" class="colorable" id="flower-center-inner"/>
  <!-- 씨앗 패턴 -->
  <circle cx="200" cy="220" r="6" class="colorable" id="seed1"/>
  <circle cx="216" cy="228" r="6" class="colorable" id="seed2"/>
  <circle cx="220" cy="246" r="6" class="colorable" id="seed3"/>
  <circle cx="210" cy="260" r="6" class="colorable" id="seed4"/>
  <circle cx="194" cy="262" r="6" class="colorable" id="seed5"/>
  <circle cx="182" cy="254" r="6" class="colorable" id="seed6"/>
  <circle cx="180" cy="238" r="6" class="colorable" id="seed7"/>
  <circle cx="188" cy="224" r="6" class="colorable" id="seed8"/>
  <!-- 중심 얼굴 -->
  <circle cx="200" cy="234" r="5" class="fixed"/>
  <circle cx="200" cy="234" r="5" class="fixed"/>
  <circle cx="193" cy="234" r="5" class="fixed"/>
  <circle cx="207" cy="234" r="5" class="fixed"/>
  <path d="M190 244 Q200 254 210 244" class="outline" stroke-width="2.5"/>

  <!-- 줄기 -->
  <path d="M175 302 Q165 330 162 370 L175 370 Q178 340 185 308 Z" class="colorable" id="stem-l"/>
  <path d="M215 305 Q222 332 225 370 L238 370 Q234 335 222 302 Z" class="colorable" id="stem-r"/>
  <!-- 잎사귀 -->
  <path d="M170 340 Q138 325 122 345 Q135 362 168 355 Z" class="colorable" id="leaf-l"/>
  <path d="M228 335 Q260 320 276 340 Q263 357 230 350 Z" class="colorable" id="leaf-r"/>

  <!-- 땅 -->
  <path d="M0 395 Q100 380 200 385 Q300 380 400 395 L400 500 L0 500 Z" class="colorable" id="ground"/>

  <!-- 작은 해바라기들 -->
  <!-- 왼쪽 작은 꽃 -->
  <circle cx="62" cy="345" r="28" class="colorable" id="sm-petal-l"/>
  <circle cx="62" cy="345" r="18" class="colorable" id="sm-center-l"/>
  <rect x="56" y="372" width="12" height="35" rx="5" class="colorable" id="sm-stem-l"/>
  <g transform="rotate(0,62,345)"><ellipse cx="62" cy="312" rx="10" ry="18" class="colorable" id="sm-p-l0"/></g>
  <g transform="rotate(60,62,345)"><ellipse cx="62" cy="312" rx="10" ry="18" class="colorable" id="sm-p-l60"/></g>
  <g transform="rotate(120,62,345)"><ellipse cx="62" cy="312" rx="10" ry="18" class="colorable" id="sm-p-l120"/></g>
  <g transform="rotate(180,62,345)"><ellipse cx="62" cy="312" rx="10" ry="18" class="colorable" id="sm-p-l180"/></g>
  <g transform="rotate(240,62,345)"><ellipse cx="62" cy="312" rx="10" ry="18" class="colorable" id="sm-p-l240"/></g>
  <g transform="rotate(300,62,345)"><ellipse cx="62" cy="312" rx="10" ry="18" class="colorable" id="sm-p-l300"/></g>

  <!-- 오른쪽 작은 꽃 -->
  <circle cx="338" cy="345" r="28" class="colorable" id="sm-petal-r"/>
  <circle cx="338" cy="345" r="18" class="colorable" id="sm-center-r"/>
  <rect x="332" y="372" width="12" height="35" rx="5" class="colorable" id="sm-stem-r"/>
  <g transform="rotate(0,338,345)"><ellipse cx="338" cy="312" rx="10" ry="18" class="colorable" id="sm-p-r0"/></g>
  <g transform="rotate(60,338,345)"><ellipse cx="338" cy="312" rx="10" ry="18" class="colorable" id="sm-p-r60"/></g>
  <g transform="rotate(120,338,345)"><ellipse cx="338" cy="312" rx="10" ry="18" class="colorable" id="sm-p-r120"/></g>
  <g transform="rotate(180,338,345)"><ellipse cx="338" cy="312" rx="10" ry="18" class="colorable" id="sm-p-r180"/></g>
  <g transform="rotate(240,338,345)"><ellipse cx="338" cy="312" rx="10" ry="18" class="colorable" id="sm-p-r240"/></g>
  <g transform="rotate(300,338,345)"><ellipse cx="338" cy="312" rx="10" ry="18" class="colorable" id="sm-p-r300"/></g>

  <!-- 별/반짝 장식 -->
  <path d="M32 165 L34 158 L36 165 L43 167 L36 169 L34 176 L32 169 L25 167 Z" class="colorable" id="sparkle1"/>
  <path d="M368 165 L370 158 L372 165 L379 167 L372 169 L370 176 L368 169 L361 167 Z" class="colorable" id="sparkle2"/>
  <path d="M36 82 L38 76 L40 82 L46 84 L40 86 L38 92 L36 86 L30 84 Z" class="colorable" id="sparkle3"/>
  <path d="M360 82 L362 76 L364 82 L370 84 L364 86 L362 92 L360 86 L354 84 Z" class="colorable" id="sparkle4"/>

  <!-- 나비들 -->
  <path d="M135 130 Q118 115 112 128 Q118 142 135 135 Z" class="colorable" id="butterfly1-l"/>
  <path d="M140 130 Q157 115 163 128 Q157 142 140 135 Z" class="colorable" id="butterfly1-r"/>
  <circle cx="137" cy="132" r="3" class="fixed"/>
  <path d="M272 148 Q258 134 253 146 Q258 158 272 153 Z" class="colorable" id="butterfly2-l"/>
  <path d="M276 148 Q290 134 295 146 Q290 158 276 153 Z" class="colorable" id="butterfly2-r"/>
  <circle cx="274" cy="150" r="3" class="fixed"/>

  <text x="200" y="468" text-anchor="middle" font-family="sans-serif" font-size="12" fill="#888">노란색으로 색칠하면 기쁨이 가득해요!</text>
  <text x="200" y="490" text-anchor="middle" font-family="sans-serif" font-size="18" fill="#F5C518" font-weight="bold">노란색의 기쁨 🌻</text>
</svg>
