<svg xmlns="http://www.w3.org/2000/svg" viewBox="0 0 400 560">
  <!-- White background -->
  <rect width="400" height="560" fill="white"/>
  <!-- Outer border -->
  <rect x="8" y="8" width="384" height="544" rx="14" stroke="#2a2a2a" stroke-width="3" fill="none"/>
  <!-- Inner border -->
  <rect x="16" y="16" width="368" height="528" rx="10" stroke="#2a2a2a" stroke-width="1" fill="none"/>
  <!-- Title -->
  <text x="200" y="50" text-anchor="middle" font-family="'Noto Sans KR',Arial,sans-serif" font-size="20" font-weight="bold" fill="#2a2a2a">봄 꽃밭의 다온이</text>
  <!-- Dashed divider -->
  <line x1="40" y1="62" x2="360" y2="62" stroke="#2a2a2a" stroke-width="1.5" stroke-dasharray="5,4"/>

  <!-- === SUN in corner === -->
  <circle cx="60" cy="100" r="28" fill="white" stroke="#2a2a2a" stroke-width="2.5"/>
  <!-- Sun rays -->
  <line x1="60" y1="64" x2="60" y2="56" stroke="#2a2a2a" stroke-width="2.5" stroke-linecap="round"/>
  <line x1="82" y1="72" x2="87" y2="65" stroke="#2a2a2a" stroke-width="2.5" stroke-linecap="round"/>
  <line x1="94" y1="94" x2="102" y2="90" stroke="#2a2a2a" stroke-width="2.5" stroke-linecap="round"/>
  <line x1="38" y1="72" x2="33" y2="65" stroke="#2a2a2a" stroke-width="2.5" stroke-linecap="round"/>
  <line x1="26" y1="94" x2="18" y2="90" stroke="#2a2a2a" stroke-width="2.5" stroke-linecap="round"/>
  <line x1="60" y1="134" x2="60" y2="142" stroke="#2a2a2a" stroke-width="2.5" stroke-linecap="round"/>
  <line x1="28" y1="124" x2="22" y2="130" stroke="#2a2a2a" stroke-width="2.5" stroke-linecap="round"/>
  <line x1="92" y1="124" x2="98" y2="130" stroke="#2a2a2a" stroke-width="2.5" stroke-linecap="round"/>
  <!-- Sun face -->
  <circle cx="53" cy="95" r="3.5" fill="#2a2a2a"/>
  <circle cx="67" cy="95" r="3.5" fill="#2a2a2a"/>
  <path d="M52,107 Q60,115 68,107" fill="none" stroke="#2a2a2a" stroke-width="2" stroke-linecap="round"/>

  <!-- === BUTTERFLY === -->
  <ellipse cx="315" cy="120" rx="18" ry="10" transform="rotate(-35,315,120)" fill="white" stroke="#2a2a2a" stroke-width="2"/>
  <ellipse cx="335" cy="112" rx="14" ry="8" transform="rotate(20,335,112)" fill="white" stroke="#2a2a2a" stroke-width="2"/>
  <ellipse cx="318" cy="136" rx="15" ry="9" transform="rotate(-10,318,136)" fill="white" stroke="#2a2a2a" stroke-width="2"/>
  <ellipse cx="336" cy="128" rx="12" ry="7" transform="rotate(30,336,128)" fill="white" stroke="#2a2a2a" stroke-width="2"/>
  <!-- Butterfly body -->
  <ellipse cx="325" cy="124" rx="3" ry="10" fill="white" stroke="#2a2a2a" stroke-width="2"/>
  <!-- Antenna -->
  <path d="M323,114 Q320,106 318,100" fill="none" stroke="#2a2a2a" stroke-width="1.5" stroke-linecap="round"/>
  <circle cx="318" cy="99" r="2.5" fill="#2a2a2a"/>
  <path d="M327,114 Q330,106 332,100" fill="none" stroke="#2a2a2a" stroke-width="1.5" stroke-linecap="round"/>
  <circle cx="332" cy="99" r="2.5" fill="#2a2a2a"/>
  <!-- Wing pattern dots -->
  <circle cx="312" cy="118" r="4" fill="none" stroke="#2a2a2a" stroke-width="1.5"/>
  <circle cx="334" cy="110" r="3" fill="none" stroke="#2a2a2a" stroke-width="1.5"/>

  <!-- === GRASSY GROUND === -->
  <path d="M24,420 Q100,408 200,412 Q300,416 376,408 L376,460 L24,460 Z" fill="white" stroke="#2a2a2a" stroke-width="2.5" stroke-linecap="round" stroke-linejoin="round"/>
  <!-- Ground details/texture -->
  <path d="M40,418 L38,406 L44,416" fill="none" stroke="#2a2a2a" stroke-width="1.5" stroke-linecap="round"/>
  <path d="M54,416 L52,404 L58,414" fill="none" stroke="#2a2a2a" stroke-width="1.5" stroke-linecap="round"/>
  <path d="M336,412 L334,400 L340,410" fill="none" stroke="#2a2a2a" stroke-width="1.5" stroke-linecap="round"/>
  <path d="M352,414 L350,402 L356,412" fill="none" stroke="#2a2a2a" stroke-width="1.5" stroke-linecap="round"/>

  <!-- === FLOWERS (scattered field) === -->
  <!-- Tulip 1 left -->
  <path d="M68,404 Q68,370 68,355 Q60,340 68,328 Q76,340 68,355" fill="white" stroke="#2a2a2a" stroke-width="2" stroke-linecap="round" stroke-linejoin="round"/>
  <line x1="68" y1="404" x2="68" y2="328" stroke="#2a2a2a" stroke-width="2" stroke-linecap="round"/>
  <path d="M60,376 Q52,366 56,358" fill="none" stroke="#2a2a2a" stroke-width="1.5" stroke-linecap="round"/>

  <!-- Daisy 1 -->
  <circle cx="110" cy="395" r="7" fill="white" stroke="#2a2a2a" stroke-width="1.8"/>
  <ellipse cx="110" cy="382" rx="5" ry="9" fill="white" stroke="#2a2a2a" stroke-width="1.8"/>
  <ellipse cx="110" cy="408" rx="5" ry="9" fill="white" stroke="#2a2a2a" stroke-width="1.8"/>
  <ellipse cx="97" cy="395" rx="9" ry="5" fill="white" stroke="#2a2a2a" stroke-width="1.8"/>
  <ellipse cx="123" cy="395" rx="9" ry="5" fill="white" stroke="#2a2a2a" stroke-width="1.8"/>
  <ellipse cx="99" cy="384" rx="7" ry="4" transform="rotate(-45,99,384)" fill="white" stroke="#2a2a2a" stroke-width="1.8"/>
  <ellipse cx="121" cy="384" rx="7" ry="4" transform="rotate(45,121,384)" fill="white" stroke="#2a2a2a" stroke-width="1.8"/>
  <ellipse cx="99" cy="406" rx="7" ry="4" transform="rotate(45,99,406)" fill="white" stroke="#2a2a2a" stroke-width="1.8"/>
  <ellipse cx="121" cy="406" rx="7" ry="4" transform="rotate(-45,121,406)" fill="white" stroke="#2a2a2a" stroke-width="1.8"/>
  <line x1="110" y1="402" x2="110" y2="420" stroke="#2a2a2a" stroke-width="2" stroke-linecap="round"/>

  <!-- Tulip 2 center-left -->
  <line x1="158" y1="418" x2="158" y2="365" stroke="#2a2a2a" stroke-width="2" stroke-linecap="round"/>
  <path d="M150,365 Q150,340 158,330 Q166,340 166,365 Z" fill="white" stroke="#2a2a2a" stroke-width="2" stroke-linecap="round" stroke-linejoin="round"/>
  <path d="M150,388 Q140,376 145,367" fill="none" stroke="#2a2a2a" stroke-width="1.5" stroke-linecap="round"/>

  <!-- Daisy 2 center-right -->
  <circle cx="270" cy="392" r="7" fill="white" stroke="#2a2a2a" stroke-width="1.8"/>
  <ellipse cx="270" cy="379" rx="5" ry="9" fill="white" stroke="#2a2a2a" stroke-width="1.8"/>
  <ellipse cx="270" cy="405" rx="5" ry="9" fill="white" stroke="#2a2a2a" stroke-width="1.8"/>
  <ellipse cx="257" cy="392" rx="9" ry="5" fill="white" stroke="#2a2a2a" stroke-width="1.8"/>
  <ellipse cx="283" cy="392" rx="9" ry="5" fill="white" stroke="#2a2a2a" stroke-width="1.8"/>
  <line x1="270" y1="399" x2="270" y2="418" stroke="#2a2a2a" stroke-width="2" stroke-linecap="round"/>

  <!-- Tulip 3 right -->
  <line x1="328" y1="412" x2="328" y2="358" stroke="#2a2a2a" stroke-width="2" stroke-linecap="round"/>
  <path d="M320,358 Q320,335 328,325 Q336,335 336,358 Z" fill="white" stroke="#2a2a2a" stroke-width="2" stroke-linecap="round" stroke-linejoin="round"/>
  <path d="M336,382 Q346,370 340,360" fill="none" stroke="#2a2a2a" stroke-width="1.5" stroke-linecap="round"/>

  <!-- Small buds scattered -->
  <circle cx="85" cy="415" r="5" fill="white" stroke="#2a2a2a" stroke-width="1.5"/>
  <line x1="85" y1="420" x2="85" y2="428" stroke="#2a2a2a" stroke-width="1.5" stroke-linecap="round"/>
  <circle cx="305" cy="408" r="5" fill="white" stroke="#2a2a2a" stroke-width="1.5"/>
  <line x1="305" y1="413" x2="305" y2="422" stroke="#2a2a2a" stroke-width="1.5" stroke-linecap="round"/>
  <circle cx="350" cy="412" r="4" fill="white" stroke="#2a2a2a" stroke-width="1.5"/>

  <!-- === BEAR STANDING IN FIELD === -->
  <!-- Left ear outer -->
  <circle cx="162" cy="136" r="22" fill="white" stroke="#2a2a2a" stroke-width="2.5" stroke-linecap="round" stroke-linejoin="round"/>
  <circle cx="165" cy="139" r="12" fill="white" stroke="#2a2a2a" stroke-width="1.5"/>
  <!-- Right ear outer -->
  <circle cx="238" cy="136" r="22" fill="white" stroke="#2a2a2a" stroke-width="2.5" stroke-linecap="round" stroke-linejoin="round"/>
  <circle cx="235" cy="139" r="12" fill="white" stroke="#2a2a2a" stroke-width="1.5"/>
  <!-- Head -->
  <circle cx="200" cy="180" r="56" fill="white" stroke="#2a2a2a" stroke-width="3" stroke-linecap="round" stroke-linejoin="round"/>
  <!-- Eyes (happy bright) -->
  <circle cx="182" cy="170" r="7.5" fill="white" stroke="#2a2a2a" stroke-width="2.2"/>
  <circle cx="184" cy="168" r="3.2" fill="#2a2a2a"/>
  <circle cx="186" cy="166" r="1.5" fill="white"/>
  <circle cx="218" cy="170" r="7.5" fill="white" stroke="#2a2a2a" stroke-width="2.2"/>
  <circle cx="220" cy="168" r="3.2" fill="#2a2a2a"/>
  <circle cx="222" cy="166" r="1.5" fill="white"/>
  <!-- Muzzle -->
  <ellipse cx="200" cy="194" rx="26" ry="18" fill="white" stroke="#2a2a2a" stroke-width="1.8"/>
  <!-- Nose -->
  <ellipse cx="200" cy="187" rx="7.5" ry="5" fill="#2a2a2a"/>
  <!-- Big happy smile -->
  <path d="M186,200 Q200,214 214,200" fill="none" stroke="#2a2a2a" stroke-width="2.2" stroke-linecap="round"/>
  <!-- Blush -->
  <ellipse cx="168" cy="194" rx="11" ry="7" fill="none" stroke="#2a2a2a" stroke-width="1.2" stroke-dasharray="2,2"/>
  <ellipse cx="232" cy="194" rx="11" ry="7" fill="none" stroke="#2a2a2a" stroke-width="1.2" stroke-dasharray="2,2"/>
  <!-- Body -->
  <ellipse cx="200" cy="322" rx="68" ry="76" fill="white" stroke="#2a2a2a" stroke-width="3" stroke-linecap="round" stroke-linejoin="round"/>
  <!-- Belly -->
  <ellipse cx="200" cy="326" rx="40" ry="46" fill="white" stroke="#2a2a2a" stroke-width="1.8"/>
  <!-- Arms (holding a flower) -->
  <!-- Left arm out with flower -->
  <path d="M140,272 Q115,285 95,270" fill="white" stroke="#2a2a2a" stroke-width="2.5" stroke-linecap="round" stroke-linejoin="round"/>
  <ellipse cx="90" cy="268" rx="14" ry="10" fill="white" stroke="#2a2a2a" stroke-width="2"/>
  <!-- Flower in left paw -->
  <circle cx="76" cy="256" r="7" fill="white" stroke="#2a2a2a" stroke-width="2"/>
  <ellipse cx="76" cy="243" rx="5" ry="8" fill="white" stroke="#2a2a2a" stroke-width="1.8"/>
  <ellipse cx="76" cy="269" rx="5" ry="8" fill="white" stroke="#2a2a2a" stroke-width="1.8"/>
  <ellipse cx="63" cy="256" rx="8" ry="5" fill="white" stroke="#2a2a2a" stroke-width="1.8"/>
  <ellipse cx="89" cy="256" rx="8" ry="5" fill="white" stroke="#2a2a2a" stroke-width="1.8"/>
  <!-- Right arm relaxed -->
  <path d="M260,272 Q285,285 298,305 Q305,320 295,340" fill="white" stroke="#2a2a2a" stroke-width="2.5" stroke-linecap="round" stroke-linejoin="round"/>
  <ellipse cx="292" cy="344" rx="14" ry="10" fill="white" stroke="#2a2a2a" stroke-width="2"/>
  <!-- Legs -->
  <ellipse cx="170" cy="390" rx="28" ry="20" fill="white" stroke="#2a2a2a" stroke-width="2.5"/>
  <ellipse cx="162" cy="408" rx="22" ry="12" fill="white" stroke="#2a2a2a" stroke-width="2.5"/>
  <ellipse cx="230" cy="390" rx="28" ry="20" fill="white" stroke="#2a2a2a" stroke-width="2.5"/>
  <ellipse cx="238" cy="408" rx="22" ry="12" fill="white" stroke="#2a2a2a" stroke-width="2.5"/>

  <!-- Activity prompt -->
  <text x="200" y="478" text-anchor="middle" font-family="'Noto Sans KR',Arial,sans-serif" font-size="13" fill="#555">
    <tspan x="200" dy="0">꽃밭에 내가 좋아하는 꽃을</tspan>
    <tspan x="200" dy="18">더 그려 넣어 보세요.</tspan>
  </text>
  <!-- Footer -->
  <text x="200" y="540" text-anchor="middle" font-family="'Noto Sans KR',Arial,sans-serif" font-size="10" fill="#aaa">마음마을 © 색칠공부</text>
</svg>
