<?xml version="1.0" encoding="UTF-8"?>
<svg xmlns="http://www.w3.org/2000/svg" viewBox="0 0 400 560" width="400" height="560">
  <rect width="400" height="560" fill="white"/>
  <rect x="8" y="8" width="384" height="544" rx="14" fill="none" stroke="#2a2a2a" stroke-width="3"/>
  <rect x="16" y="16" width="368" height="528" rx="10" fill="none" stroke="#2a2a2a" stroke-width="1"/>
  <text x="200" y="50" text-anchor="middle" font-family="'Noto Sans KR',Arial,sans-serif" font-size="20" font-weight="bold" fill="#2a2a2a">지혜 나무의 지우</text>
  <line x1="40" y1="62" x2="360" y2="62" stroke="#2a2a2a" stroke-width="1.5" stroke-dasharray="5,4"/>

  <!-- Ground / hill -->
  <path d="M28,440 Q200,418 372,440 L372,465 L28,465Z" fill="white" stroke="#2a2a2a" stroke-width="2" stroke-linecap="round"/>
  <!-- Grass tufts -->
  <path d="M50,435 Q54,428 58,435" fill="none" stroke="#2a2a2a" stroke-width="1.5" stroke-linecap="round"/>
  <path d="M340,435 Q344,428 348,435" fill="none" stroke="#2a2a2a" stroke-width="1.5" stroke-linecap="round"/>
  <path d="M120,430 Q124,423 128,430" fill="none" stroke="#2a2a2a" stroke-width="1.5" stroke-linecap="round"/>
  <path d="M270,430 Q274,423 278,430" fill="none" stroke="#2a2a2a" stroke-width="1.5" stroke-linecap="round"/>

  <!-- Tree trunk (ancient, wide gnarled) -->
  <path d="M172,440 Q162,400 158,360 Q154,316 160,270 Q165,236 172,208 Q178,182 185,160" fill="none" stroke="#2a2a2a" stroke-width="5" stroke-linecap="round"/>
  <path d="M228,440 Q238,400 242,360 Q246,316 240,270 Q235,236 228,208 Q222,182 215,160" fill="none" stroke="#2a2a2a" stroke-width="5" stroke-linecap="round"/>
  <!-- Trunk bark lines -->
  <path d="M168,390 Q185,384 192,395" fill="none" stroke="#2a2a2a" stroke-width="2" stroke-linecap="round"/>
  <path d="M215,400 Q228,395 232,406" fill="none" stroke="#2a2a2a" stroke-width="2" stroke-linecap="round"/>
  <path d="M164,340 Q180,334 186,346" fill="none" stroke="#2a2a2a" stroke-width="2" stroke-linecap="round"/>
  <path d="M216,348 Q230,343 234,355" fill="none" stroke="#2a2a2a" stroke-width="2" stroke-linecap="round"/>
  <path d="M167,300 Q182,295 188,306" fill="none" stroke="#2a2a2a" stroke-width="2" stroke-linecap="round"/>

  <!-- Deep roots -->
  <path d="M172,440 Q152,452 124,462" fill="none" stroke="#2a2a2a" stroke-width="3.5" stroke-linecap="round"/>
  <path d="M172,440 Q162,458 155,472" fill="none" stroke="#2a2a2a" stroke-width="3" stroke-linecap="round"/>
  <path d="M200,445 Q200,460 200,475" fill="none" stroke="#2a2a2a" stroke-width="3" stroke-linecap="round"/>
  <path d="M228,440 Q248,452 276,462" fill="none" stroke="#2a2a2a" stroke-width="3.5" stroke-linecap="round"/>
  <path d="M228,440 Q238,458 245,472" fill="none" stroke="#2a2a2a" stroke-width="3" stroke-linecap="round"/>
  <!-- Root sub-branches -->
  <path d="M124,462 Q108,458 96,468" fill="none" stroke="#2a2a2a" stroke-width="2" stroke-linecap="round"/>
  <path d="M124,462 Q116,472 112,480" fill="none" stroke="#2a2a2a" stroke-width="2" stroke-linecap="round"/>
  <path d="M276,462 Q292,458 304,468" fill="none" stroke="#2a2a2a" stroke-width="2" stroke-linecap="round"/>
  <path d="M276,462 Q284,472 288,480" fill="none" stroke="#2a2a2a" stroke-width="2" stroke-linecap="round"/>

  <!-- Major branches -->
  <!-- Left branch 1 -->
  <path d="M170,300 Q134,272 92,262" fill="none" stroke="#2a2a2a" stroke-width="3.5" stroke-linecap="round"/>
  <path d="M92,262 Q70,258 48,250" fill="none" stroke="#2a2a2a" stroke-width="2.5" stroke-linecap="round"/>
  <path d="M92,262 Q84,280 76,296" fill="none" stroke="#2a2a2a" stroke-width="2" stroke-linecap="round"/>
  <!-- Left branch 2 -->
  <path d="M174,220 Q140,200 108,188" fill="none" stroke="#2a2a2a" stroke-width="3" stroke-linecap="round"/>
  <path d="M108,188 Q86,180 64,175" fill="none" stroke="#2a2a2a" stroke-width="2" stroke-linecap="round"/>
  <path d="M108,188 Q100,204 94,220" fill="none" stroke="#2a2a2a" stroke-width="2" stroke-linecap="round"/>
  <!-- Right branch 1 -->
  <path d="M230,300 Q266,272 308,262" fill="none" stroke="#2a2a2a" stroke-width="3.5" stroke-linecap="round"/>
  <path d="M308,262 Q330,258 352,250" fill="none" stroke="#2a2a2a" stroke-width="2.5" stroke-linecap="round"/>
  <path d="M308,262 Q316,280 324,296" fill="none" stroke="#2a2a2a" stroke-width="2" stroke-linecap="round"/>
  <!-- Right branch 2 -->
  <path d="M226,220 Q260,200 292,188" fill="none" stroke="#2a2a2a" stroke-width="3" stroke-linecap="round"/>
  <path d="M292,188 Q314,180 336,175" fill="none" stroke="#2a2a2a" stroke-width="2" stroke-linecap="round"/>
  <path d="M292,188 Q300,204 306,220" fill="none" stroke="#2a2a2a" stroke-width="2" stroke-linecap="round"/>
  <!-- Top branch -->
  <path d="M200,160 Q200,130 200,100" fill="none" stroke="#2a2a2a" stroke-width="3" stroke-linecap="round"/>
  <path d="M200,130 Q182,118 166,110" fill="none" stroke="#2a2a2a" stroke-width="2" stroke-linecap="round"/>
  <path d="M200,130 Q218,118 234,110" fill="none" stroke="#2a2a2a" stroke-width="2" stroke-linecap="round"/>

  <!-- Leaf clusters at branch tips -->
  <ellipse cx="44" cy="246" rx="20" ry="13" fill="white" stroke="#2a2a2a" stroke-width="2"/>
  <ellipse cx="65" cy="240" rx="16" ry="10" fill="white" stroke="#2a2a2a" stroke-width="2"/>
  <ellipse cx="72" cy="293" rx="16" ry="10" fill="white" stroke="#2a2a2a" stroke-width="2"/>
  <ellipse cx="60" cy="172" rx="18" ry="11" fill="white" stroke="#2a2a2a" stroke-width="2"/>
  <ellipse cx="90" cy="218" rx="14" ry="9" fill="white" stroke="#2a2a2a" stroke-width="2"/>
  <ellipse cx="356" cy="246" rx="20" ry="13" fill="white" stroke="#2a2a2a" stroke-width="2"/>
  <ellipse cx="335" cy="240" rx="16" ry="10" fill="white" stroke="#2a2a2a" stroke-width="2"/>
  <ellipse cx="328" cy="293" rx="16" ry="10" fill="white" stroke="#2a2a2a" stroke-width="2"/>
  <ellipse cx="340" cy="172" rx="18" ry="11" fill="white" stroke="#2a2a2a" stroke-width="2"/>
  <ellipse cx="310" cy="218" rx="14" ry="9" fill="white" stroke="#2a2a2a" stroke-width="2"/>
  <ellipse cx="162" cy="107" rx="18" ry="11" fill="white" stroke="#2a2a2a" stroke-width="2"/>
  <ellipse cx="238" cy="107" rx="18" ry="11" fill="white" stroke="#2a2a2a" stroke-width="2"/>
  <ellipse cx="200" cy="88" rx="20" ry="13" fill="white" stroke="#2a2a2a" stroke-width="2"/>

  <!-- Hanging apple-books from branches -->
  <!-- Apple/book shape: circle with ? mark -->
  <!-- Left branch apples -->
  <!-- Apple 1: left lower branch -->
  <circle cx="68" cy="276" r="12" fill="white" stroke="#2a2a2a" stroke-width="2"/>
  <path d="M68,264 Q72,260 70,264" fill="none" stroke="#2a2a2a" stroke-width="1.5" stroke-linecap="round"/>
  <!-- small stem+leaf -->
  <line x1="68" y1="264" x2="68" y2="260" stroke="#2a2a2a" stroke-width="1.5" stroke-linecap="round"/>
  <path d="M68,261 Q74,258 72,263" fill="none" stroke="#2a2a2a" stroke-width="1.5" stroke-linecap="round"/>
  <text x="68" y="280" text-anchor="middle" font-family="Arial,sans-serif" font-size="12" font-weight="bold" fill="#2a2a2a">?</text>
  <!-- String -->
  <line x1="68" y1="264" x2="72" y2="280" stroke="#2a2a2a" stroke-width="1" stroke-linecap="round"/>

  <!-- Apple 2 -->
  <circle cx="44" cy="228" r="11" fill="white" stroke="#2a2a2a" stroke-width="2"/>
  <line x1="44" y1="217" x2="44" y2="213" stroke="#2a2a2a" stroke-width="1.5" stroke-linecap="round"/>
  <path d="M44,214 Q50,211 48,216" fill="none" stroke="#2a2a2a" stroke-width="1.5" stroke-linecap="round"/>
  <text x="44" y="232" text-anchor="middle" font-family="Arial,sans-serif" font-size="11" font-weight="bold" fill="#2a2a2a">?</text>
  <line x1="50" y1="244" x2="46" y2="217" stroke="#2a2a2a" stroke-width="1" stroke-linecap="round"/>

  <!-- Apple 3: left upper -->
  <circle cx="96" cy="200" r="11" fill="white" stroke="#2a2a2a" stroke-width="2"/>
  <line x1="96" y1="189" x2="96" y2="185" stroke="#2a2a2a" stroke-width="1.5" stroke-linecap="round"/>
  <path d="M96,186 Q102,183 100,188" fill="none" stroke="#2a2a2a" stroke-width="1.5" stroke-linecap="round"/>
  <text x="96" y="204" text-anchor="middle" font-family="Arial,sans-serif" font-size="11" font-weight="bold" fill="#2a2a2a">?</text>
  <line x1="104" y1="188" x2="100" y2="189" stroke="#2a2a2a" stroke-width="1" stroke-linecap="round"/>

  <!-- Right branch apples -->
  <circle cx="332" cy="276" r="12" fill="white" stroke="#2a2a2a" stroke-width="2"/>
  <line x1="332" y1="264" x2="332" y2="260" stroke="#2a2a2a" stroke-width="1.5" stroke-linecap="round"/>
  <path d="M332,261 Q338,258 336,263" fill="none" stroke="#2a2a2a" stroke-width="1.5" stroke-linecap="round"/>
  <text x="332" y="280" text-anchor="middle" font-family="Arial,sans-serif" font-size="12" font-weight="bold" fill="#2a2a2a">?</text>
  <line x1="332" y1="264" x2="328" y2="280" stroke="#2a2a2a" stroke-width="1" stroke-linecap="round"/>

  <circle cx="356" cy="228" r="11" fill="white" stroke="#2a2a2a" stroke-width="2"/>
  <line x1="356" y1="217" x2="356" y2="213" stroke="#2a2a2a" stroke-width="1.5" stroke-linecap="round"/>
  <path d="M356,214 Q362,211 360,216" fill="none" stroke="#2a2a2a" stroke-width="1.5" stroke-linecap="round"/>
  <text x="356" y="232" text-anchor="middle" font-family="Arial,sans-serif" font-size="11" font-weight="bold" fill="#2a2a2a">?</text>
  <line x1="350" y1="244" x2="354" y2="217" stroke="#2a2a2a" stroke-width="1" stroke-linecap="round"/>

  <circle cx="304" cy="200" r="11" fill="white" stroke="#2a2a2a" stroke-width="2"/>
  <line x1="304" y1="189" x2="304" y2="185" stroke="#2a2a2a" stroke-width="1.5" stroke-linecap="round"/>
  <path d="M304,186 Q310,183 308,188" fill="none" stroke="#2a2a2a" stroke-width="1.5" stroke-linecap="round"/>
  <text x="304" y="204" text-anchor="middle" font-family="Arial,sans-serif" font-size="11" font-weight="bold" fill="#2a2a2a">?</text>
  <line x1="296" y1="188" x2="300" y2="189" stroke="#2a2a2a" stroke-width="1" stroke-linecap="round"/>

  <!-- Top apple -->
  <circle cx="200" cy="75" r="12" fill="white" stroke="#2a2a2a" stroke-width="2"/>
  <line x1="200" y1="63" x2="200" y2="59" stroke="#2a2a2a" stroke-width="1.5" stroke-linecap="round"/>
  <path d="M200,60 Q206,57 204,62" fill="none" stroke="#2a2a2a" stroke-width="1.5" stroke-linecap="round"/>
  <text x="200" y="79" text-anchor="middle" font-family="Arial,sans-serif" font-size="12" font-weight="bold" fill="#2a2a2a">?</text>
  <line x1="200" y1="63" x2="200" y2="75" stroke="#2a2a2a" stroke-width="1" stroke-linecap="round"/>

  <!-- OWL perched on main branch (right side, branch at ~y=300) -->
  <!-- Body -->
  <ellipse cx="272" cy="330" rx="34" ry="40" fill="white" stroke="#2a2a2a" stroke-width="3" stroke-linecap="round" stroke-linejoin="round"/>
  <!-- Wing left -->
  <path d="M240,318 Q222,330 236,352 Q250,342 250,324Z" fill="white" stroke="#2a2a2a" stroke-width="2.5" stroke-linecap="round" stroke-linejoin="round"/>
  <!-- Wing right -->
  <path d="M304,318 Q322,330 308,352 Q294,342 294,324Z" fill="white" stroke="#2a2a2a" stroke-width="2.5" stroke-linecap="round" stroke-linejoin="round"/>
  <!-- Belly -->
  <ellipse cx="272" cy="340" rx="20" ry="26" fill="white" stroke="#2a2a2a" stroke-width="1.5"/>
  <path d="M263,332 Q272,335 281,332" fill="none" stroke="#2a2a2a" stroke-width="1" stroke-linecap="round"/>
  <path d="M261,342 Q272,345 283,342" fill="none" stroke="#2a2a2a" stroke-width="1" stroke-linecap="round"/>

  <!-- HEAD -->
  <circle cx="272" cy="268" r="46" fill="white" stroke="#2a2a2a" stroke-width="3" stroke-linecap="round" stroke-linejoin="round"/>
  <!-- Ear tufts -->
  <polygon points="250,232 244,210 260,228" fill="white" stroke="#2a2a2a" stroke-width="2.5" stroke-linecap="round" stroke-linejoin="round"/>
  <polygon points="294,232 300,210 284,228" fill="white" stroke="#2a2a2a" stroke-width="2.5" stroke-linecap="round" stroke-linejoin="round"/>
  <!-- Eyes -->
  <circle cx="256" cy="266" r="20" fill="white" stroke="#2a2a2a" stroke-width="2.5"/>
  <circle cx="288" cy="266" r="20" fill="white" stroke="#2a2a2a" stroke-width="2.5"/>
  <circle cx="256" cy="266" r="13" fill="white" stroke="#2a2a2a" stroke-width="2"/>
  <circle cx="288" cy="266" r="13" fill="white" stroke="#2a2a2a" stroke-width="2"/>
  <circle cx="257" cy="267" r="6" fill="#2a2a2a"/>
  <circle cx="289" cy="267" r="6" fill="#2a2a2a"/>
  <circle cx="260" cy="263" r="2" fill="white"/>
  <circle cx="292" cy="263" r="2" fill="white"/>
  <path d="M240,252 Q248,247 258,250" fill="none" stroke="#2a2a2a" stroke-width="1.5" stroke-linecap="round"/>
  <path d="M270,250 Q280,246 290,249" fill="none" stroke="#2a2a2a" stroke-width="1.5" stroke-linecap="round"/>
  <!-- Beak -->
  <path d="M268,280 L272,289 L276,280 Q272,277 268,280Z" fill="white" stroke="#2a2a2a" stroke-width="2" stroke-linecap="round" stroke-linejoin="round"/>
  <!-- Spectacles -->
  <circle cx="256" cy="266" r="22" fill="none" stroke="#2a2a2a" stroke-width="2"/>
  <circle cx="288" cy="266" r="22" fill="none" stroke="#2a2a2a" stroke-width="2"/>
  <line x1="278" y1="266" x2="266" y2="266" stroke="#2a2a2a" stroke-width="2"/>
  <line x1="234" y1="262" x2="225" y2="258" stroke="#2a2a2a" stroke-width="2" stroke-linecap="round"/>
  <line x1="310" y1="262" x2="319" y2="258" stroke="#2a2a2a" stroke-width="2" stroke-linecap="round"/>

  <!-- Talons gripping branch -->
  <path d="M252,370 L245,380 M252,370 L251,382 M252,370 L260,381" fill="none" stroke="#2a2a2a" stroke-width="2.5" stroke-linecap="round"/>
  <path d="M292,370 L285,380 M292,370 L291,382 M292,370 L300,381" fill="none" stroke="#2a2a2a" stroke-width="2.5" stroke-linecap="round"/>

  <!-- Activity prompt -->
  <text x="200" y="468" text-anchor="middle" font-family="'Noto Sans KR',Arial,sans-serif" font-size="13" fill="#555">
    <tspan x="200" dy="0">지혜 나무에 내가 알고 싶은 것을</tspan>
    <tspan x="200" dy="18">사과처럼 달아 보세요.</tspan>
  </text>
  <text x="200" y="540" text-anchor="middle" font-family="'Noto Sans KR',Arial,sans-serif" font-size="10" fill="#aaa">마음마을 © 색칠공부</text>
</svg>
