<?xml version="1.0" encoding="UTF-8"?>
<svg xmlns="http://www.w3.org/2000/svg" viewBox="0 0 400 560" width="400" height="560">
  <rect width="400" height="560" fill="white"/>
  <rect x="8" y="8" width="384" height="544" rx="14" fill="none" stroke="#2a2a2a" stroke-width="3"/>
  <rect x="16" y="16" width="368" height="528" rx="10" fill="none" stroke="#2a2a2a" stroke-width="1"/>
  <text x="200" y="50" text-anchor="middle" font-family="'Noto Sans KR',Arial,sans-serif" font-size="20" font-weight="bold" fill="#2a2a2a">지우의 나무 둥지</text>
  <line x1="40" y1="62" x2="360" y2="62" stroke="#2a2a2a" stroke-width="1.5" stroke-dasharray="5,4"/>

  <!-- Moon (top right) -->
  <circle cx="346" cy="104" r="28" fill="white" stroke="#2a2a2a" stroke-width="2.5"/>
  <!-- Moon face: slightly crescent by white overlay removed, just a circle outline -->
  <!-- Stars near moon -->
  <path d="M310,82 L312,88 L318,88 L313,92 L315,98 L310,94 L305,98 L307,92 L302,88 L308,88Z" fill="white" stroke="#2a2a2a" stroke-width="1.5" stroke-linecap="round" stroke-linejoin="round"/>
  <path d="M358,78 L359,81 L362,82 L359,83 L358,86 L357,83 L354,82 L357,81Z" fill="white" stroke="#2a2a2a" stroke-width="1.2" stroke-linecap="round"/>
  <path d="M370,118 L371,121 L374,122 L371,123 L370,126 L369,123 L366,122 L369,121Z" fill="white" stroke="#2a2a2a" stroke-width="1.2" stroke-linecap="round"/>
  <circle cx="285" cy="90" r="2.5" fill="none" stroke="#2a2a2a" stroke-width="1.5"/>
  <circle cx="372" cy="150" r="2.5" fill="none" stroke="#2a2a2a" stroke-width="1.5"/>
  <circle cx="32" cy="88" r="2.5" fill="none" stroke="#2a2a2a" stroke-width="1.5"/>
  <circle cx="55" cy="110" r="2" fill="none" stroke="#2a2a2a" stroke-width="1.5"/>
  <path d="M38,130 L39,133 L42,134 L39,135 L38,138 L37,135 L34,134 L37,133Z" fill="white" stroke="#2a2a2a" stroke-width="1.2" stroke-linecap="round"/>

  <!-- Main tree trunk -->
  <path d="M158,445 Q148,380 152,320 Q155,270 164,230 Q170,200 178,175 Q186,148 195,130" fill="none" stroke="#2a2a2a" stroke-width="4" stroke-linecap="round"/>
  <path d="M242,445 Q252,380 248,320 Q245,270 236,230 Q230,200 222,175 Q214,148 205,130" fill="none" stroke="#2a2a2a" stroke-width="4" stroke-linecap="round"/>
  <!-- Tree bark lines -->
  <path d="M164,360 Q180,355 186,368" fill="none" stroke="#2a2a2a" stroke-width="1.5" stroke-linecap="round"/>
  <path d="M220,380 Q234,376 238,388" fill="none" stroke="#2a2a2a" stroke-width="1.5" stroke-linecap="round"/>
  <path d="M160,310 Q176,305 182,318" fill="none" stroke="#2a2a2a" stroke-width="1.5" stroke-linecap="round"/>
  <path d="M222,330 Q236,326 240,338" fill="none" stroke="#2a2a2a" stroke-width="1.5" stroke-linecap="round"/>

  <!-- Roots spreading -->
  <path d="M158,445 Q138,450 105,458" fill="none" stroke="#2a2a2a" stroke-width="3" stroke-linecap="round"/>
  <path d="M158,445 Q148,458 140,472" fill="none" stroke="#2a2a2a" stroke-width="3" stroke-linecap="round"/>
  <path d="M242,445 Q262,450 295,458" fill="none" stroke="#2a2a2a" stroke-width="3" stroke-linecap="round"/>
  <path d="M242,445 Q252,458 260,472" fill="none" stroke="#2a2a2a" stroke-width="3" stroke-linecap="round"/>
  <path d="M200,445 Q200,462 200,475" fill="none" stroke="#2a2a2a" stroke-width="3" stroke-linecap="round"/>

  <!-- Large branches left -->
  <path d="M168,280 Q130,250 88,242" fill="none" stroke="#2a2a2a" stroke-width="3" stroke-linecap="round"/>
  <path d="M88,242 Q72,236 58,228" fill="none" stroke="#2a2a2a" stroke-width="2" stroke-linecap="round"/>
  <path d="M88,242 Q80,260 72,275" fill="none" stroke="#2a2a2a" stroke-width="2" stroke-linecap="round"/>
  <path d="M88,242 Q98,230 108,218" fill="none" stroke="#2a2a2a" stroke-width="2" stroke-linecap="round"/>
  <!-- Twigs left -->
  <path d="M58,228 Q44,222 36,218" fill="none" stroke="#2a2a2a" stroke-width="1.5" stroke-linecap="round"/>
  <path d="M58,228 Q54,214 52,202" fill="none" stroke="#2a2a2a" stroke-width="1.5" stroke-linecap="round"/>

  <!-- Large branches right -->
  <path d="M232,280 Q270,250 312,242" fill="none" stroke="#2a2a2a" stroke-width="3" stroke-linecap="round"/>
  <path d="M312,242 Q328,236 342,228" fill="none" stroke="#2a2a2a" stroke-width="2" stroke-linecap="round"/>
  <path d="M312,242 Q320,260 328,275" fill="none" stroke="#2a2a2a" stroke-width="2" stroke-linecap="round"/>
  <path d="M312,242 Q302,230 292,218" fill="none" stroke="#2a2a2a" stroke-width="2" stroke-linecap="round"/>
  <!-- Twigs right -->
  <path d="M342,228 Q356,222 364,218" fill="none" stroke="#2a2a2a" stroke-width="1.5" stroke-linecap="round"/>
  <path d="M342,228 Q346,214 348,202" fill="none" stroke="#2a2a2a" stroke-width="1.5" stroke-linecap="round"/>

  <!-- Leaves clusters (simple oval groups) -->
  <ellipse cx="46" cy="212" rx="22" ry="14" fill="white" stroke="#2a2a2a" stroke-width="2"/>
  <ellipse cx="68" cy="202" rx="18" ry="12" fill="white" stroke="#2a2a2a" stroke-width="2"/>
  <ellipse cx="75" cy="270" rx="18" ry="12" fill="white" stroke="#2a2a2a" stroke-width="2"/>
  <ellipse cx="56" cy="285" rx="16" ry="10" fill="white" stroke="#2a2a2a" stroke-width="2"/>
  <ellipse cx="355" cy="212" rx="22" ry="14" fill="white" stroke="#2a2a2a" stroke-width="2"/>
  <ellipse cx="334" cy="202" rx="18" ry="12" fill="white" stroke="#2a2a2a" stroke-width="2"/>
  <ellipse cx="325" cy="270" rx="18" ry="12" fill="white" stroke="#2a2a2a" stroke-width="2"/>
  <ellipse cx="344" cy="285" rx="16" ry="10" fill="white" stroke="#2a2a2a" stroke-width="2"/>
  <ellipse cx="108" cy="210" rx="16" ry="11" fill="white" stroke="#2a2a2a" stroke-width="2"/>
  <ellipse cx="292" cy="210" rx="16" ry="11" fill="white" stroke="#2a2a2a" stroke-width="2"/>

  <!-- Hollow / nest opening in tree -->
  <ellipse cx="200" cy="168" rx="52" ry="44" fill="white" stroke="#2a2a2a" stroke-width="3"/>
  <!-- Hollow dark interior -->
  <ellipse cx="200" cy="172" rx="42" ry="35" fill="white" stroke="#2a2a2a" stroke-width="2"/>
  <!-- Nest twigs at bottom of hollow -->
  <path d="M162,195 Q180,188 200,192 Q220,188 238,195" fill="none" stroke="#2a2a2a" stroke-width="2" stroke-linecap="round"/>
  <path d="M165,200 Q182,193 200,197 Q218,193 235,200" fill="none" stroke="#2a2a2a" stroke-width="1.5" stroke-linecap="round"/>
  <!-- Nest items: small book -->
  <rect x="173" y="185" width="16" height="12" rx="2" fill="white" stroke="#2a2a2a" stroke-width="1.5"/>
  <line x1="181" y1="185" x2="181" y2="197" stroke="#2a2a2a" stroke-width="1"/>
  <!-- Nest items: acorn -->
  <circle cx="222" cy="190" r="6" fill="white" stroke="#2a2a2a" stroke-width="1.5"/>
  <path d="M217,185 Q222,182 227,185" fill="white" stroke="#2a2a2a" stroke-width="1.5" stroke-linecap="round"/>
  <line x1="222" y1="182" x2="222" y2="178" stroke="#2a2a2a" stroke-width="1.5" stroke-linecap="round"/>

  <!-- OWL peeking out of nest opening -->
  <!-- Head only (bottom third in nest) -->
  <circle cx="200" cy="148" r="44" fill="white" stroke="#2a2a2a" stroke-width="3" stroke-linecap="round" stroke-linejoin="round"/>
  <!-- Ear tufts -->
  <polygon points="178,114 172,92 188,110" fill="white" stroke="#2a2a2a" stroke-width="2.5" stroke-linecap="round" stroke-linejoin="round"/>
  <polygon points="222,114 228,92 212,110" fill="white" stroke="#2a2a2a" stroke-width="2.5" stroke-linecap="round" stroke-linejoin="round"/>
  <!-- Eyes -->
  <circle cx="184" cy="146" r="19" fill="white" stroke="#2a2a2a" stroke-width="2.5"/>
  <circle cx="216" cy="146" r="19" fill="white" stroke="#2a2a2a" stroke-width="2.5"/>
  <circle cx="184" cy="146" r="12" fill="white" stroke="#2a2a2a" stroke-width="2"/>
  <circle cx="216" cy="146" r="12" fill="white" stroke="#2a2a2a" stroke-width="2"/>
  <circle cx="185" cy="147" r="6" fill="#2a2a2a"/>
  <circle cx="217" cy="147" r="6" fill="#2a2a2a"/>
  <circle cx="188" cy="143" r="2" fill="white"/>
  <circle cx="220" cy="143" r="2" fill="white"/>
  <path d="M169,132 Q177,127 187,130" fill="none" stroke="#2a2a2a" stroke-width="1.5" stroke-linecap="round"/>
  <path d="M201,130 Q211,126 221,129" fill="none" stroke="#2a2a2a" stroke-width="1.5" stroke-linecap="round"/>
  <!-- Beak -->
  <path d="M196,160 L200,168 L204,160 Q200,157 196,160Z" fill="white" stroke="#2a2a2a" stroke-width="2" stroke-linecap="round" stroke-linejoin="round"/>

  <!-- Wing tips visible gripping hollow edge -->
  <path d="M158,172 Q148,165 142,172 Q148,180 158,178Z" fill="white" stroke="#2a2a2a" stroke-width="2.5" stroke-linecap="round" stroke-linejoin="round"/>
  <path d="M242,172 Q252,165 258,172 Q252,180 242,178Z" fill="white" stroke="#2a2a2a" stroke-width="2.5" stroke-linecap="round" stroke-linejoin="round"/>

  <!-- Ground -->
  <path d="M28,445 Q200,438 372,445" fill="white" stroke="#2a2a2a" stroke-width="2" stroke-linecap="round"/>
  <!-- Grass tufts -->
  <path d="M60,440 Q64,433 68,440" fill="none" stroke="#2a2a2a" stroke-width="1.5" stroke-linecap="round"/>
  <path d="M110,437 Q114,430 118,437" fill="none" stroke="#2a2a2a" stroke-width="1.5" stroke-linecap="round"/>
  <path d="M280,437 Q284,430 288,437" fill="none" stroke="#2a2a2a" stroke-width="1.5" stroke-linecap="round"/>
  <path d="M330,440 Q334,433 338,440" fill="none" stroke="#2a2a2a" stroke-width="1.5" stroke-linecap="round"/>

  <!-- Activity prompt -->
  <text x="200" y="473" text-anchor="middle" font-family="'Noto Sans KR',Arial,sans-serif" font-size="13" fill="#555">
    <tspan x="200" dy="0">지우의 둥지 안에 무엇이 있을까요?</tspan>
    <tspan x="200" dy="18">그려 넣어 보세요.</tspan>
  </text>
  <text x="200" y="540" text-anchor="middle" font-family="'Noto Sans KR',Arial,sans-serif" font-size="10" fill="#aaa">마음마을 © 색칠공부</text>
</svg>
