<?xml version="1.0" encoding="UTF-8"?>
<svg xmlns="http://www.w3.org/2000/svg" viewBox="0 0 400 560" width="400" height="560">
  <rect width="400" height="560" fill="white"/>
  <rect x="8" y="8" width="384" height="544" rx="14" fill="none" stroke="#2a2a2a" stroke-width="3"/>
  <rect x="16" y="16" width="368" height="528" rx="10" fill="none" stroke="#2a2a2a" stroke-width="1"/>
  <text x="200" y="50" text-anchor="middle" font-family="'Noto Sans KR',Arial,sans-serif" font-size="20" font-weight="bold" fill="#2a2a2a">밤의 등불 지우</text>
  <line x1="40" y1="62" x2="360" y2="62" stroke="#2a2a2a" stroke-width="1.5" stroke-dasharray="5,4"/>

  <!-- Stars scattered — many of various sizes -->
  <!-- 4-point stars -->
  <path d="M35,88 L37,94 L43,94 L38,98 L40,104 L35,100 L30,104 L32,98 L27,94 L33,94Z" fill="white" stroke="#2a2a2a" stroke-width="1.5" stroke-linecap="round" stroke-linejoin="round"/>
  <path d="M355,85 L357,91 L363,91 L358,95 L360,101 L355,97 L350,101 L352,95 L347,91 L353,91Z" fill="white" stroke="#2a2a2a" stroke-width="1.5" stroke-linecap="round" stroke-linejoin="round"/>
  <path d="M80,120 L82,126 L88,126 L83,130 L85,136 L80,132 L75,136 L77,130 L72,126 L78,126Z" fill="white" stroke="#2a2a2a" stroke-width="1.5" stroke-linecap="round" stroke-linejoin="round"/>
  <path d="M320,105 L322,111 L328,111 L323,115 L325,121 L320,117 L315,121 L317,115 L312,111 L318,111Z" fill="white" stroke="#2a2a2a" stroke-width="1.5" stroke-linecap="round" stroke-linejoin="round"/>
  <path d="M168,80 L170,86 L176,86 L171,90 L173,96 L168,92 L163,96 L165,90 L160,86 L166,86Z" fill="white" stroke="#2a2a2a" stroke-width="1.5" stroke-linecap="round" stroke-linejoin="round"/>
  <path d="M235,88 L237,94 L243,94 L238,98 L240,104 L235,100 L230,104 L232,98 L227,94 L233,94Z" fill="white" stroke="#2a2a2a" stroke-width="1.5" stroke-linecap="round" stroke-linejoin="round"/>
  <!-- Sparkle stars small -->
  <path d="M110,92 L111,95 L114,96 L111,97 L110,100 L109,97 L106,96 L109,95Z" fill="white" stroke="#2a2a2a" stroke-width="1.2" stroke-linecap="round"/>
  <path d="M290,80 L291,83 L294,84 L291,85 L290,88 L289,85 L286,84 L289,83Z" fill="white" stroke="#2a2a2a" stroke-width="1.2" stroke-linecap="round"/>
  <path d="M370,115 L371,118 L374,119 L371,120 L370,123 L369,120 L366,119 L369,118Z" fill="white" stroke="#2a2a2a" stroke-width="1.2" stroke-linecap="round"/>
  <path d="M25,150 L26,153 L29,154 L26,155 L25,158 L24,155 L21,154 L24,153Z" fill="white" stroke="#2a2a2a" stroke-width="1.2" stroke-linecap="round"/>
  <path d="M55,170 L56,173 L59,174 L56,175 L55,178 L54,175 L51,174 L54,173Z" fill="white" stroke="#2a2a2a" stroke-width="1.2" stroke-linecap="round"/>
  <path d="M345,155 L346,158 L349,159 L346,160 L345,163 L344,160 L341,159 L344,158Z" fill="white" stroke="#2a2a2a" stroke-width="1.2" stroke-linecap="round"/>
  <!-- Dot stars -->
  <circle cx="145" cy="108" r="2.5" fill="none" stroke="#2a2a2a" stroke-width="1.5"/>
  <circle cx="260" cy="100" r="2.5" fill="none" stroke="#2a2a2a" stroke-width="1.5"/>
  <circle cx="38" cy="200" r="2" fill="none" stroke="#2a2a2a" stroke-width="1.5"/>
  <circle cx="362" cy="200" r="2" fill="none" stroke="#2a2a2a" stroke-width="1.5"/>
  <circle cx="198" cy="75" r="2" fill="none" stroke="#2a2a2a" stroke-width="1.5"/>
  <circle cx="130" cy="145" r="2" fill="none" stroke="#2a2a2a" stroke-width="1.5"/>
  <circle cx="270" cy="140" r="2" fill="none" stroke="#2a2a2a" stroke-width="1.5"/>
  <circle cx="90" cy="160" r="2" fill="none" stroke="#2a2a2a" stroke-width="1.5"/>
  <circle cx="310" cy="165" r="2" fill="none" stroke="#2a2a2a" stroke-width="1.5"/>

  <!-- Glow radiating lines from lantern area (center-right of image) -->
  <!-- Lantern will be at approx x=300, y=300 area (right wing/talon) -->
  <line x1="300" y1="295" x2="340" y2="260" stroke="#2a2a2a" stroke-width="1" stroke-dasharray="4,4" stroke-linecap="round"/>
  <line x1="300" y1="295" x2="350" y2="295" stroke="#2a2a2a" stroke-width="1" stroke-dasharray="4,4" stroke-linecap="round"/>
  <line x1="300" y1="295" x2="340" y2="330" stroke="#2a2a2a" stroke-width="1" stroke-dasharray="4,4" stroke-linecap="round"/>
  <line x1="300" y1="295" x2="310" y2="250" stroke="#2a2a2a" stroke-width="1" stroke-dasharray="4,4" stroke-linecap="round"/>
  <line x1="300" y1="295" x2="310" y2="340" stroke="#2a2a2a" stroke-width="1" stroke-dasharray="4,4" stroke-linecap="round"/>
  <line x1="300" y1="295" x2="360" y2="270" stroke="#2a2a2a" stroke-width="1" stroke-dasharray="3,5" stroke-linecap="round"/>
  <line x1="300" y1="295" x2="365" y2="318" stroke="#2a2a2a" stroke-width="1" stroke-dasharray="3,5" stroke-linecap="round"/>

  <!-- OWL body (standing/flying, wings spread) -->
  <!-- Body -->
  <ellipse cx="185" cy="310" rx="48" ry="58" fill="white" stroke="#2a2a2a" stroke-width="3" stroke-linecap="round" stroke-linejoin="round"/>
  <!-- Wing right (holding lantern) -->
  <path d="M230,290 Q265,270 295,285 Q275,320 240,320Z" fill="white" stroke="#2a2a2a" stroke-width="2.5" stroke-linecap="round" stroke-linejoin="round"/>
  <!-- Wing feather details right -->
  <path d="M242,302 Q260,296 278,300" fill="none" stroke="#2a2a2a" stroke-width="1.2" stroke-linecap="round"/>
  <path d="M240,312 Q258,308 274,312" fill="none" stroke="#2a2a2a" stroke-width="1.2" stroke-linecap="round"/>
  <!-- Wing left (spread decoratively) -->
  <path d="M140,290 Q100,268 65,285 Q88,320 134,320Z" fill="white" stroke="#2a2a2a" stroke-width="2.5" stroke-linecap="round" stroke-linejoin="round"/>
  <!-- Wing feather details left -->
  <path d="M126,302 Q108,296 88,300" fill="none" stroke="#2a2a2a" stroke-width="1.2" stroke-linecap="round"/>
  <path d="M128,312 Q110,308 92,312" fill="none" stroke="#2a2a2a" stroke-width="1.2" stroke-linecap="round"/>

  <!-- Belly oval -->
  <ellipse cx="185" cy="322" rx="28" ry="36" fill="white" stroke="#2a2a2a" stroke-width="1.5"/>
  <path d="M173,310 Q185,314 197,310" fill="none" stroke="#2a2a2a" stroke-width="1" stroke-linecap="round"/>
  <path d="M170,322 Q185,326 200,322" fill="none" stroke="#2a2a2a" stroke-width="1" stroke-linecap="round"/>
  <path d="M173,334 Q185,338 197,334" fill="none" stroke="#2a2a2a" stroke-width="1" stroke-linecap="round"/>

  <!-- Scarf -->
  <path d="M142,354 Q185,372 228,354" fill="none" stroke="#2a2a2a" stroke-width="3.5" stroke-linecap="round"/>
  <path d="M228,354 L234,376 L226,380 L220,360" fill="white" stroke="#2a2a2a" stroke-width="2" stroke-linecap="round" stroke-linejoin="round"/>
  <line x1="226" y1="380" x2="222" y2="390" stroke="#2a2a2a" stroke-width="1.5" stroke-linecap="round"/>
  <line x1="230" y1="379" x2="228" y2="389" stroke="#2a2a2a" stroke-width="1.5" stroke-linecap="round"/>
  <line x1="234" y1="376" x2="233" y2="386" stroke="#2a2a2a" stroke-width="1.5" stroke-linecap="round"/>

  <!-- Talons -->
  <path d="M162,368 L154,380 M162,368 L161,382 M162,368 L170,380" fill="none" stroke="#2a2a2a" stroke-width="2.5" stroke-linecap="round"/>
  <!-- Right talon holding lantern handle -->
  <path d="M208,368 L202,378 M208,368 L208,382" fill="none" stroke="#2a2a2a" stroke-width="2.5" stroke-linecap="round"/>

  <!-- Lantern (hanging from right side area) -->
  <!-- Handle -->
  <path d="M295,255 Q305,248 315,255" fill="none" stroke="#2a2a2a" stroke-width="2.5" stroke-linecap="round"/>
  <!-- Lantern top cap -->
  <rect x="282" y="258" width="34" height="10" rx="4" fill="white" stroke="#2a2a2a" stroke-width="2.5"/>
  <!-- Lantern body -->
  <rect x="276" y="268" width="46" height="62" rx="6" fill="white" stroke="#2a2a2a" stroke-width="2.5"/>
  <!-- Lantern frame verticals (3 panes) -->
  <line x1="292" y1="268" x2="292" y2="330" stroke="#2a2a2a" stroke-width="1.5"/>
  <line x1="306" y1="268" x2="306" y2="330" stroke="#2a2a2a" stroke-width="1.5"/>
  <!-- Lantern frame horizontals -->
  <line x1="276" y1="289" x2="322" y2="289" stroke="#2a2a2a" stroke-width="1.5"/>
  <line x1="276" y1="309" x2="322" y2="309" stroke="#2a2a2a" stroke-width="1.5"/>
  <!-- Lantern glass pane texture (X on middle pane) -->
  <line x1="292" y1="289" x2="306" y2="309" stroke="#2a2a2a" stroke-width="1" stroke-linecap="round"/>
  <line x1="306" y1="289" x2="292" y2="309" stroke="#2a2a2a" stroke-width="1" stroke-linecap="round"/>
  <!-- Lantern bottom cap -->
  <rect x="282" y="330" width="34" height="10" rx="4" fill="white" stroke="#2a2a2a" stroke-width="2.5"/>
  <!-- Flame inside lantern (visible through glass) -->
  <path d="M298,296 Q301,288 299,282 Q303,288 305,296 Q304,306 299,308 Q294,306 298,296Z" fill="white" stroke="#2a2a2a" stroke-width="1.5" stroke-linecap="round" stroke-linejoin="round"/>
  <!-- Small chain/rope connecting wing to lantern -->
  <path d="M295,285 Q300,275 305,268" fill="none" stroke="#2a2a2a" stroke-width="2" stroke-linecap="round" stroke-dasharray="3,2"/>

  <!-- HEAD -->
  <circle cx="185" cy="224" r="58" fill="white" stroke="#2a2a2a" stroke-width="3" stroke-linecap="round" stroke-linejoin="round"/>
  <!-- Ear tufts -->
  <polygon points="157,178 149,152 169,174" fill="white" stroke="#2a2a2a" stroke-width="2.5" stroke-linecap="round" stroke-linejoin="round"/>
  <polygon points="213,178 221,152 201,174" fill="white" stroke="#2a2a2a" stroke-width="2.5" stroke-linecap="round" stroke-linejoin="round"/>
  <!-- Eyes -->
  <circle cx="166" cy="222" r="22" fill="white" stroke="#2a2a2a" stroke-width="2.5"/>
  <circle cx="204" cy="222" r="22" fill="white" stroke="#2a2a2a" stroke-width="2.5"/>
  <circle cx="166" cy="222" r="14" fill="white" stroke="#2a2a2a" stroke-width="2"/>
  <circle cx="204" cy="222" r="14" fill="white" stroke="#2a2a2a" stroke-width="2"/>
  <circle cx="167" cy="223" r="7" fill="#2a2a2a"/>
  <circle cx="205" cy="223" r="7" fill="#2a2a2a"/>
  <circle cx="170" cy="219" r="2.5" fill="white"/>
  <circle cx="208" cy="219" r="2.5" fill="white"/>
  <path d="M148,208 Q158,202 169,206" fill="none" stroke="#2a2a2a" stroke-width="1.5" stroke-linecap="round"/>
  <path d="M185,206 Q196,201 207,205" fill="none" stroke="#2a2a2a" stroke-width="1.5" stroke-linecap="round"/>
  <!-- Beak -->
  <path d="M181,237 L185,246 L189,237 Q185,234 181,237Z" fill="white" stroke="#2a2a2a" stroke-width="2" stroke-linecap="round" stroke-linejoin="round"/>

  <!-- Hill/ground silhouette -->
  <path d="M28,440 Q100,408 200,415 Q300,422 372,440Z" fill="white" stroke="#2a2a2a" stroke-width="2" stroke-linecap="round" stroke-linejoin="round"/>
  <!-- Small village silhouette on hill -->
  <polygon points="60,410 70,396 80,410" fill="white" stroke="#2a2a2a" stroke-width="1.5" stroke-linecap="round" stroke-linejoin="round"/>
  <rect x="60" y="410" width="20" height="10" rx="1" fill="white" stroke="#2a2a2a" stroke-width="1.5"/>
  <polygon points="100,404 112,390 124,404" fill="white" stroke="#2a2a2a" stroke-width="1.5" stroke-linecap="round" stroke-linejoin="round"/>
  <rect x="100" y="404" width="24" height="12" rx="1" fill="white" stroke="#2a2a2a" stroke-width="1.5"/>
  <line x1="112" y1="404" x2="112" y2="416" stroke="#2a2a2a" stroke-width="1.2"/>
  <!-- Window lights -->
  <rect x="64" y="413" width="5" height="5" rx="1" fill="none" stroke="#2a2a2a" stroke-width="1"/>
  <rect x="72" y="413" width="5" height="5" rx="1" fill="none" stroke="#2a2a2a" stroke-width="1"/>

  <!-- Activity prompt -->
  <text x="200" y="473" text-anchor="middle" font-family="'Noto Sans KR',Arial,sans-serif" font-size="13" fill="#555">
    <tspan x="200" dy="0">밤하늘을 별로 가득 채워 보세요.</tspan>
  </text>
  <text x="200" y="540" text-anchor="middle" font-family="'Noto Sans KR',Arial,sans-serif" font-size="10" fill="#aaa">마음마을 © 색칠공부</text>
</svg>
