<svg xmlns="http://www.w3.org/2000/svg" viewBox="0 0 400 560">
  <rect width="400" height="560" fill="white"/>
  <rect x="8" y="8" width="384" height="544" rx="14" stroke="#2a2a2a" stroke-width="3" fill="none"/>
  <rect x="16" y="16" width="368" height="528" rx="10" stroke="#2a2a2a" stroke-width="1" fill="none"/>
  <text x="200" y="50" text-anchor="middle" font-family="'Noto Sans KR',Arial,sans-serif" font-size="20" font-weight="bold" fill="#2a2a2a">비도 괜찮아, 느루</text>
  <line x1="40" y1="62" x2="360" y2="62" stroke="#2a2a2a" stroke-width="1.5" stroke-dasharray="5,4"/>

  <!-- Rain clouds -->
  <ellipse cx="130" cy="95" rx="55" ry="28" fill="white" stroke="#2a2a2a" stroke-width="2.5"/>
  <ellipse cx="160" cy="82" rx="40" ry="25" fill="white" stroke="#2a2a2a" stroke-width="2.5"/>
  <ellipse cx="100" cy="88" rx="35" ry="22" fill="white" stroke="#2a2a2a" stroke-width="2.5"/>
  <ellipse cx="85" cy="100" rx="28" ry="18" fill="white" stroke="#2a2a2a" stroke-width="2.5"/>

  <ellipse cx="295" cy="105" rx="50" ry="26" fill="white" stroke="#2a2a2a" stroke-width="2.5"/>
  <ellipse cx="322" cy="92" rx="38" ry="24" fill="white" stroke="#2a2a2a" stroke-width="2.5"/>
  <ellipse cx="270" cy="95" rx="32" ry="20" fill="white" stroke="#2a2a2a" stroke-width="2.5"/>

  <!-- Raindrops - many small drops -->
  <path d="M50,130 L46,148" stroke="#2a2a2a" stroke-width="1.8" stroke-linecap="round"/>
  <path d="M75,120 L71,138" stroke="#2a2a2a" stroke-width="1.8" stroke-linecap="round"/>
  <path d="M100,135 L96,153" stroke="#2a2a2a" stroke-width="1.8" stroke-linecap="round"/>
  <path d="M125,125 L121,143" stroke="#2a2a2a" stroke-width="1.8" stroke-linecap="round"/>
  <path d="M155,130 L151,148" stroke="#2a2a2a" stroke-width="1.8" stroke-linecap="round"/>
  <path d="M180,118 L176,136" stroke="#2a2a2a" stroke-width="1.8" stroke-linecap="round"/>
  <path d="M38,160 L34,178" stroke="#2a2a2a" stroke-width="1.8" stroke-linecap="round"/>
  <path d="M63,155 L59,173" stroke="#2a2a2a" stroke-width="1.8" stroke-linecap="round"/>
  <path d="M88,165 L84,183" stroke="#2a2a2a" stroke-width="1.8" stroke-linecap="round"/>
  <path d="M113,158 L109,176" stroke="#2a2a2a" stroke-width="1.8" stroke-linecap="round"/>
  <path d="M140,162 L136,180" stroke="#2a2a2a" stroke-width="1.8" stroke-linecap="round"/>
  <path d="M168,155 L164,173" stroke="#2a2a2a" stroke-width="1.8" stroke-linecap="round"/>
  <path d="M220,125 L216,143" stroke="#2a2a2a" stroke-width="1.8" stroke-linecap="round"/>
  <path d="M245,130 L241,148" stroke="#2a2a2a" stroke-width="1.8" stroke-linecap="round"/>
  <path d="M270,120 L266,138" stroke="#2a2a2a" stroke-width="1.8" stroke-linecap="round"/>
  <path d="M300,128 L296,146" stroke="#2a2a2a" stroke-width="1.8" stroke-linecap="round"/>
  <path d="M325,118 L321,136" stroke="#2a2a2a" stroke-width="1.8" stroke-linecap="round"/>
  <path d="M352,132 L348,150" stroke="#2a2a2a" stroke-width="1.8" stroke-linecap="round"/>
  <path d="M235,155 L231,173" stroke="#2a2a2a" stroke-width="1.8" stroke-linecap="round"/>
  <path d="M258,162 L254,180" stroke="#2a2a2a" stroke-width="1.8" stroke-linecap="round"/>
  <path d="M282,150 L278,168" stroke="#2a2a2a" stroke-width="1.8" stroke-linecap="round"/>
  <path d="M310,158 L306,176" stroke="#2a2a2a" stroke-width="1.8" stroke-linecap="round"/>
  <path d="M338,148 L334,166" stroke="#2a2a2a" stroke-width="1.8" stroke-linecap="round"/>
  <path d="M362,160 L358,178" stroke="#2a2a2a" stroke-width="1.8" stroke-linecap="round"/>
  <!-- More drops near turtle -->
  <path d="M50,200 L46,218" stroke="#2a2a2a" stroke-width="1.8" stroke-linecap="round"/>
  <path d="M80,210 L76,228" stroke="#2a2a2a" stroke-width="1.8" stroke-linecap="round"/>
  <path d="M350,195 L346,213" stroke="#2a2a2a" stroke-width="1.8" stroke-linecap="round"/>
  <path d="M370,210 L366,228" stroke="#2a2a2a" stroke-width="1.8" stroke-linecap="round"/>

  <!-- Ground / puddles -->
  <path d="M30,430 Q200,418 370,430 L370,455 Q200,445 30,455 Z" fill="white" stroke="#2a2a2a" stroke-width="2.5"/>

  <!-- Puddles with ripples -->
  <ellipse cx="80" cy="440" rx="30" ry="10" fill="white" stroke="#2a2a2a" stroke-width="2"/>
  <ellipse cx="80" cy="440" rx="20" ry="6" fill="white" stroke="#2a2a2a" stroke-width="1.2"/>
  <ellipse cx="80" cy="440" rx="10" ry="3" fill="white" stroke="#2a2a2a" stroke-width="1"/>
  <ellipse cx="320" cy="442" rx="28" ry="9" fill="white" stroke="#2a2a2a" stroke-width="2"/>
  <ellipse cx="320" cy="442" rx="18" ry="6" fill="white" stroke="#2a2a2a" stroke-width="1.2"/>
  <ellipse cx="320" cy="442" rx="9" ry="3" fill="white" stroke="#2a2a2a" stroke-width="1"/>
  <ellipse cx="200" cy="438" rx="22" ry="7" fill="white" stroke="#2a2a2a" stroke-width="1.8"/>
  <ellipse cx="200" cy="438" rx="12" ry="4" fill="white" stroke="#2a2a2a" stroke-width="1"/>

  <!-- Rainbow starting in top right corner (partial arc) -->
  <path d="M290,80 Q340,180 370,250" fill="none" stroke="#2a2a2a" stroke-width="3" stroke-linecap="round"/>
  <path d="M300,80 Q348,178 370,245" fill="none" stroke="#2a2a2a" stroke-width="2.5" stroke-linecap="round"/>
  <path d="M310,82 Q354,178 370,240" fill="none" stroke="#2a2a2a" stroke-width="2" stroke-linecap="round"/>
  <path d="M320,86 Q360,180 370,234" fill="none" stroke="#2a2a2a" stroke-width="1.8" stroke-linecap="round"/>

  <!-- TURTLE walking through rain -->
  <!-- Shell (acts as natural umbrella - domed shape shields) -->
  <ellipse cx="195" cy="335" rx="70" ry="56" fill="white" stroke="#2a2a2a" stroke-width="3"/>
  <ellipse cx="195" cy="352" rx="70" ry="20" fill="white" stroke="#2a2a2a" stroke-width="2.5"/>
  <!-- Hex pattern on shell -->
  <polygon points="195,287 213,296 213,314 195,323 177,314 177,296" fill="white" stroke="#2a2a2a" stroke-width="2"/>
  <polygon points="218,300 234,308 234,325 218,333 202,325 202,308" fill="white" stroke="#2a2a2a" stroke-width="2"/>
  <polygon points="172,300 188,308 188,325 172,333 156,325 156,308" fill="white" stroke="#2a2a2a" stroke-width="2"/>
  <polygon points="195,316 212,324 212,340 195,348 178,340 178,324" fill="white" stroke="#2a2a2a" stroke-width="2"/>
  <!-- Flower on shell -->
  <circle cx="195" cy="304" r="5" fill="white" stroke="#2a2a2a" stroke-width="1.5"/>
  <ellipse cx="195" cy="297" rx="3" ry="5" fill="white" stroke="#2a2a2a" stroke-width="1.5"/>
  <ellipse cx="201" cy="300" rx="3" ry="5" fill="white" stroke="#2a2a2a" stroke-width="1.5" transform="rotate(60,201,300)"/>
  <ellipse cx="201" cy="308" rx="3" ry="5" fill="white" stroke="#2a2a2a" stroke-width="1.5" transform="rotate(120,201,308)"/>
  <ellipse cx="195" cy="311" rx="3" ry="5" fill="white" stroke="#2a2a2a" stroke-width="1.5"/>
  <ellipse cx="189" cy="308" rx="3" ry="5" fill="white" stroke="#2a2a2a" stroke-width="1.5" transform="rotate(240,189,308)"/>
  <ellipse cx="189" cy="300" rx="3" ry="5" fill="white" stroke="#2a2a2a" stroke-width="1.5" transform="rotate(300,189,300)"/>

  <!-- Legs walking -->
  <ellipse cx="248" cy="368" rx="19" ry="12" fill="white" stroke="#2a2a2a" stroke-width="2.5" transform="rotate(-30,248,368)"/>
  <ellipse cx="143" cy="365" rx="19" ry="12" fill="white" stroke="#2a2a2a" stroke-width="2.5" transform="rotate(15,143,365)"/>
  <ellipse cx="238" cy="382" rx="17" ry="11" fill="white" stroke="#2a2a2a" stroke-width="2.5" transform="rotate(20,238,382)"/>
  <ellipse cx="152" cy="380" rx="17" ry="11" fill="white" stroke="#2a2a2a" stroke-width="2.5" transform="rotate(-20,152,380)"/>

  <!-- Neck -->
  <ellipse cx="252" cy="338" rx="14" ry="19" fill="white" stroke="#2a2a2a" stroke-width="2.5"/>
  <!-- Head -->
  <circle cx="268" cy="320" r="22" fill="white" stroke="#2a2a2a" stroke-width="3"/>
  <!-- Eyes - determined smile in rain -->
  <circle cx="276" cy="314" r="6" fill="white" stroke="#2a2a2a" stroke-width="2"/>
  <circle cx="278" cy="314" r="2.5" fill="#2a2a2a"/>
  <circle cx="279" cy="312" r="1" fill="white"/>
  <circle cx="262" cy="316" r="4" fill="white" stroke="#2a2a2a" stroke-width="1.8"/>
  <circle cx="262" cy="316" r="1.5" fill="#2a2a2a"/>
  <!-- Determined smile -->
  <path d="M259,325 Q267,332 276,326" fill="none" stroke="#2a2a2a" stroke-width="2" stroke-linecap="round"/>
  <!-- Raindrop on shell tip -->
  <path d="M195,281 Q198,272 195,267 Q192,272 195,281" fill="white" stroke="#2a2a2a" stroke-width="1.8"/>
  <!-- Tail -->
  <path d="M127,358 Q115,364 112,374" fill="none" stroke="#2a2a2a" stroke-width="2.5" stroke-linecap="round"/>

  <!-- Activity prompt -->
  <text x="200" y="490" text-anchor="middle" font-family="'Noto Sans KR',Arial,sans-serif" font-size="13" fill="#555">
    <tspan x="200" dy="0">비가 그치면 무엇이 나타날까요?</tspan>
    <tspan x="200" dy="18">그려 보세요.</tspan>
  </text>
  <text x="200" y="540" text-anchor="middle" font-family="'Noto Sans KR',Arial,sans-serif" font-size="10" fill="#aaa">마음마을 © 색칠공부</text>
</svg>
