<svg xmlns="http://www.w3.org/2000/svg" viewBox="0 0 400 560">
  <rect width="400" height="560" fill="white"/>
  <rect x="8" y="8" width="384" height="544" rx="14" stroke="#2a2a2a" stroke-width="3" fill="none"/>
  <rect x="16" y="16" width="368" height="528" rx="10" stroke="#2a2a2a" stroke-width="1" fill="none"/>
  <text x="200" y="50" text-anchor="middle" font-family="'Noto Sans KR',Arial,sans-serif" font-size="20" font-weight="bold" fill="#2a2a2a">느루의 천천히 걸어가기</text>
  <line x1="40" y1="62" x2="360" y2="62" stroke="#2a2a2a" stroke-width="1.5" stroke-dasharray="5,4"/>

  <!-- Sun -->
  <circle cx="325" cy="105" r="28" fill="white" stroke="#2a2a2a" stroke-width="2.5"/>
  <line x1="325" y1="68" x2="325" y2="78" stroke="#2a2a2a" stroke-width="2" stroke-linecap="round"/>
  <line x1="325" y1="132" x2="325" y2="142" stroke="#2a2a2a" stroke-width="2" stroke-linecap="round"/>
  <line x1="288" y1="105" x2="298" y2="105" stroke="#2a2a2a" stroke-width="2" stroke-linecap="round"/>
  <line x1="352" y1="105" x2="362" y2="105" stroke="#2a2a2a" stroke-width="2" stroke-linecap="round"/>
  <line x1="299" y1="79" x2="306" y2="86" stroke="#2a2a2a" stroke-width="2" stroke-linecap="round"/>
  <line x1="344" y1="124" x2="351" y2="131" stroke="#2a2a2a" stroke-width="2" stroke-linecap="round"/>
  <line x1="351" y1="79" x2="344" y2="86" stroke="#2a2a2a" stroke-width="2" stroke-linecap="round"/>
  <line x1="306" y1="124" x2="299" y2="131" stroke="#2a2a2a" stroke-width="2" stroke-linecap="round"/>

  <!-- Clouds -->
  <ellipse cx="85" cy="95" rx="26" ry="14" fill="white" stroke="#2a2a2a" stroke-width="2"/>
  <ellipse cx="104" cy="87" rx="19" ry="13" fill="white" stroke="#2a2a2a" stroke-width="2"/>
  <ellipse cx="67" cy="90" rx="17" ry="12" fill="white" stroke="#2a2a2a" stroke-width="2"/>

  <!-- Winding path ground area -->
  <path d="M30,430 Q90,400 150,415 Q220,432 280,405 Q325,385 370,398 L370,465 Q325,455 280,468 Q220,480 150,462 Q90,450 30,465 Z" fill="white" stroke="#2a2a2a" stroke-width="2.5" stroke-linejoin="round"/>
  <!-- Path dotted center line -->
  <path d="M38,447 Q100,425 158,440 Q228,456 285,432 Q328,416 368,426" fill="none" stroke="#2a2a2a" stroke-width="1.5" stroke-dasharray="6,5"/>

  <!-- Far path hint (perspective) -->
  <path d="M160,200 Q190,190 220,200 Q240,210 250,240 L148,240 Q152,210 160,200Z" fill="white" stroke="#2a2a2a" stroke-width="2" stroke-linejoin="round"/>
  <path d="M185,195 Q195,188 205,195" fill="none" stroke="#2a2a2a" stroke-width="1.5" stroke-dasharray="4,3"/>

  <!-- Flower left -->
  <line x1="60" y1="415" x2="60" y2="432" stroke="#2a2a2a" stroke-width="2" stroke-linecap="round"/>
  <circle cx="60" cy="408" r="6" fill="white" stroke="#2a2a2a" stroke-width="2"/>
  <ellipse cx="60" cy="399" rx="4" ry="6" fill="white" stroke="#2a2a2a" stroke-width="1.8"/>
  <ellipse cx="68" cy="404" rx="4" ry="6" fill="white" stroke="#2a2a2a" stroke-width="1.8" transform="rotate(60,68,404)"/>
  <ellipse cx="68" cy="412" rx="4" ry="6" fill="white" stroke="#2a2a2a" stroke-width="1.8" transform="rotate(120,68,412)"/>
  <ellipse cx="60" cy="417" rx="4" ry="6" fill="white" stroke="#2a2a2a" stroke-width="1.8" transform="rotate(180,60,417)"/>
  <ellipse cx="52" cy="412" rx="4" ry="6" fill="white" stroke="#2a2a2a" stroke-width="1.8" transform="rotate(240,52,412)"/>
  <ellipse cx="52" cy="404" rx="4" ry="6" fill="white" stroke="#2a2a2a" stroke-width="1.8" transform="rotate(300,52,404)"/>

  <!-- Flower center path -->
  <line x1="215" y1="408" x2="215" y2="425" stroke="#2a2a2a" stroke-width="2" stroke-linecap="round"/>
  <circle cx="215" cy="401" r="6" fill="white" stroke="#2a2a2a" stroke-width="2"/>
  <ellipse cx="215" cy="392" rx="4" ry="6" fill="white" stroke="#2a2a2a" stroke-width="1.8"/>
  <ellipse cx="223" cy="397" rx="4" ry="6" fill="white" stroke="#2a2a2a" stroke-width="1.8" transform="rotate(60,223,397)"/>
  <ellipse cx="207" cy="397" rx="4" ry="6" fill="white" stroke="#2a2a2a" stroke-width="1.8" transform="rotate(-60,207,397)"/>

  <!-- Flower right -->
  <line x1="348" y1="400" x2="348" y2="416" stroke="#2a2a2a" stroke-width="2" stroke-linecap="round"/>
  <circle cx="348" cy="393" r="6" fill="white" stroke="#2a2a2a" stroke-width="2"/>
  <ellipse cx="348" cy="384" rx="4" ry="6" fill="white" stroke="#2a2a2a" stroke-width="1.8"/>
  <ellipse cx="356" cy="389" rx="4" ry="6" fill="white" stroke="#2a2a2a" stroke-width="1.8" transform="rotate(60,356,389)"/>
  <ellipse cx="356" cy="397" rx="4" ry="6" fill="white" stroke="#2a2a2a" stroke-width="1.8" transform="rotate(120,356,397)"/>
  <ellipse cx="348" cy="402" rx="4" ry="6" fill="white" stroke="#2a2a2a" stroke-width="1.8" transform="rotate(180,348,402)"/>
  <ellipse cx="340" cy="397" rx="4" ry="6" fill="white" stroke="#2a2a2a" stroke-width="1.8" transform="rotate(240,340,397)"/>
  <ellipse cx="340" cy="389" rx="4" ry="6" fill="white" stroke="#2a2a2a" stroke-width="1.8" transform="rotate(300,340,389)"/>

  <!-- TURTLE -->
  <!-- Shell -->
  <ellipse cx="195" cy="335" rx="70" ry="56" fill="white" stroke="#2a2a2a" stroke-width="3"/>
  <!-- Shell underplate rim -->
  <ellipse cx="195" cy="352" rx="70" ry="20" fill="white" stroke="#2a2a2a" stroke-width="2.5"/>
  <!-- Hex pattern on shell -->
  <polygon points="195,287 214,297 214,316 195,326 176,316 176,297" fill="white" stroke="#2a2a2a" stroke-width="2"/>
  <polygon points="220,302 238,310 238,328 220,336 202,328 202,310" fill="white" stroke="#2a2a2a" stroke-width="2"/>
  <polygon points="170,302 188,310 188,328 170,336 152,328 152,310" fill="white" stroke="#2a2a2a" stroke-width="2"/>
  <polygon points="195,318 213,326 213,344 195,352 177,344 177,326" fill="white" stroke="#2a2a2a" stroke-width="2"/>
  <polygon points="222,318 238,325 238,340 222,347 206,340 206,325" fill="white" stroke="#2a2a2a" stroke-width="2"/>

  <!-- Flower on center hex -->
  <circle cx="195" cy="306" r="5" fill="white" stroke="#2a2a2a" stroke-width="1.5"/>
  <ellipse cx="195" cy="299" rx="3" ry="5" fill="white" stroke="#2a2a2a" stroke-width="1.5"/>
  <ellipse cx="201" cy="303" rx="3" ry="5" fill="white" stroke="#2a2a2a" stroke-width="1.5" transform="rotate(60,201,303)"/>
  <ellipse cx="201" cy="309" rx="3" ry="5" fill="white" stroke="#2a2a2a" stroke-width="1.5" transform="rotate(120,201,309)"/>
  <ellipse cx="195" cy="313" rx="3" ry="5" fill="white" stroke="#2a2a2a" stroke-width="1.5"/>
  <ellipse cx="189" cy="309" rx="3" ry="5" fill="white" stroke="#2a2a2a" stroke-width="1.5" transform="rotate(240,189,309)"/>
  <ellipse cx="189" cy="303" rx="3" ry="5" fill="white" stroke="#2a2a2a" stroke-width="1.5" transform="rotate(300,189,303)"/>

  <!-- Legs -->
  <ellipse cx="248" cy="368" rx="19" ry="12" fill="white" stroke="#2a2a2a" stroke-width="2.5" transform="rotate(-25,248,368)"/>
  <ellipse cx="143" cy="368" rx="19" ry="12" fill="white" stroke="#2a2a2a" stroke-width="2.5" transform="rotate(25,143,368)"/>
  <ellipse cx="240" cy="383" rx="17" ry="11" fill="white" stroke="#2a2a2a" stroke-width="2.5" transform="rotate(15,240,383)"/>
  <ellipse cx="152" cy="383" rx="17" ry="11" fill="white" stroke="#2a2a2a" stroke-width="2.5" transform="rotate(-15,152,383)"/>

  <!-- Neck -->
  <ellipse cx="252" cy="336" rx="15" ry="20" fill="white" stroke="#2a2a2a" stroke-width="2.5"/>
  <!-- Head -->
  <circle cx="270" cy="317" r="23" fill="white" stroke="#2a2a2a" stroke-width="3"/>
  <!-- Eye -->
  <circle cx="278" cy="311" r="7" fill="white" stroke="#2a2a2a" stroke-width="2"/>
  <circle cx="280" cy="311" r="3" fill="#2a2a2a"/>
  <circle cx="281" cy="309" r="1" fill="white"/>
  <!-- Small eye shine -->
  <circle cx="263" cy="314" r="3" fill="white" stroke="#2a2a2a" stroke-width="1.5"/>
  <circle cx="263" cy="314" r="1" fill="#2a2a2a"/>
  <!-- Happy smile -->
  <path d="M260,322 Q268,330 277,323" fill="none" stroke="#2a2a2a" stroke-width="2" stroke-linecap="round"/>
  <!-- Cheek blush marks -->
  <line x1="257" y1="317" x2="261" y2="319" stroke="#2a2a2a" stroke-width="1.2" stroke-linecap="round"/>
  <line x1="258" y1="320" x2="262" y2="320" stroke="#2a2a2a" stroke-width="1.2" stroke-linecap="round"/>
  <!-- Tail -->
  <path d="M127,356 Q115,362 112,372" fill="none" stroke="#2a2a2a" stroke-width="2.5" stroke-linecap="round"/>

  <!-- Activity prompt -->
  <text x="200" y="490" text-anchor="middle" font-family="'Noto Sans KR',Arial,sans-serif" font-size="13" fill="#555">
    <tspan x="200" dy="0">느루처럼 천천히, 포기하지 않고</tspan>
    <tspan x="200" dy="18">끝까지 색칠해 보세요!</tspan>
  </text>
  <text x="200" y="540" text-anchor="middle" font-family="'Noto Sans KR',Arial,sans-serif" font-size="10" fill="#aaa">마음마을 © 색칠공부</text>
</svg>
