<svg xmlns="http://www.w3.org/2000/svg" viewBox="0 0 400 560">
  <rect width="400" height="560" fill="white"/>
  <rect x="8" y="8" width="384" height="544" rx="14" fill="none" stroke="#2a2a2a" stroke-width="3"/>
  <rect x="16" y="16" width="368" height="528" rx="10" fill="none" stroke="#2a2a2a" stroke-width="1"/>
  <text x="200" y="50" text-anchor="middle" font-family="'Noto Sans KR',Arial,sans-serif" font-size="20" font-weight="bold" fill="#2a2a2a">라온의 모험 지도</text>
  <line x1="40" y1="62" x2="360" y2="62" stroke="#2a2a2a" stroke-width="1.5" stroke-dasharray="5,4"/>

  <!-- MAP AREA background parchment outline -->
  <rect x="50" y="80" width="300" height="340" rx="8" fill="white" stroke="#2a2a2a" stroke-width="2.5"/>
  <!-- Map torn/ragged edge decoration -->
  <path d="M50,100 Q56,96 62,101 Q68,96 74,101 Q80,96 86,101 Q92,96 98,101" fill="none" stroke="#2a2a2a" stroke-width="1.5" stroke-linecap="round"/>
  <path d="M50,400 Q56,404 62,400 Q68,404 74,400 Q80,404 86,400 Q92,404 98,400" fill="none" stroke="#2a2a2a" stroke-width="1.5" stroke-linecap="round"/>
  <path d="M52,80 Q56,86 52,92 Q56,98 52,104" fill="none" stroke="#2a2a2a" stroke-width="1.5" stroke-linecap="round"/>
  <path d="M348,80 Q344,86 348,92 Q344,98 348,104" fill="none" stroke="#2a2a2a" stroke-width="1.5" stroke-linecap="round"/>

  <!-- MAP CONTENT -->

  <!-- SEA area (left side) with wavy lines -->
  <text x="76" y="145" font-family="'Noto Sans KR',Arial,sans-serif" font-size="10" fill="#2a2a2a">바다</text>
  <path d="M58,150 Q66,145 74,150 Q82,145 90,150" fill="none" stroke="#2a2a2a" stroke-width="1.5" stroke-linecap="round"/>
  <path d="M58,160 Q66,155 74,160 Q82,155 90,160" fill="none" stroke="#2a2a2a" stroke-width="1.5" stroke-linecap="round"/>
  <path d="M58,170 Q66,165 74,170 Q82,165 90,170" fill="none" stroke="#2a2a2a" stroke-width="1.5" stroke-linecap="round"/>
  <path d="M58,180 Q66,175 74,180 Q82,175 90,180" fill="none" stroke="#2a2a2a" stroke-width="1.5" stroke-linecap="round"/>
  <path d="M58,190 Q66,185 74,190 Q82,185 90,190" fill="none" stroke="#2a2a2a" stroke-width="1.5" stroke-linecap="round"/>
  <path d="M58,200 Q66,195 74,200 Q82,195 90,200" fill="none" stroke="#2a2a2a" stroke-width="1.5" stroke-linecap="round"/>
  <!-- Sailboat in sea -->
  <line x1="72" y1="215" x2="72" y2="195" stroke="#2a2a2a" stroke-width="1.5" stroke-linecap="round"/>
  <path d="M72,198 Q64,206 72,210" fill="white" stroke="#2a2a2a" stroke-width="1.5" stroke-linecap="round"/>
  <path d="M66,215 Q72,212 78,215" fill="white" stroke="#2a2a2a" stroke-width="1.5" stroke-linecap="round"/>

  <!-- MOUNTAINS center-right -->
  <text x="240" y="125" font-family="'Noto Sans KR',Arial,sans-serif" font-size="10" fill="#2a2a2a">산</text>
  <polygon points="220,200 248,140 276,200" fill="white" stroke="#2a2a2a" stroke-width="2" stroke-linejoin="round"/>
  <polygon points="260,200 282,158 304,200" fill="white" stroke="#2a2a2a" stroke-width="2" stroke-linejoin="round"/>
  <!-- Snow caps -->
  <path d="M238,162 Q248,140 258,162 Q248,158 238,162" fill="white" stroke="#2a2a2a" stroke-width="1.3"/>
  <path d="M274,170 Q282,158 290,170 Q282,166 274,170" fill="white" stroke="#2a2a2a" stroke-width="1.3"/>

  <!-- FOREST bottom-left of map -->
  <text x="110" y="290" font-family="'Noto Sans KR',Arial,sans-serif" font-size="10" fill="#2a2a2a">숲</text>
  <!-- Tree cluster -->
  <line x1="110" y1="325" x2="110" y2="305" stroke="#2a2a2a" stroke-width="1.5" stroke-linecap="round"/>
  <ellipse cx="110" cy="298" rx="10" ry="12" fill="white" stroke="#2a2a2a" stroke-width="1.5"/>
  <line x1="126" y1="325" x2="126" y2="308" stroke="#2a2a2a" stroke-width="1.5" stroke-linecap="round"/>
  <ellipse cx="126" cy="301" rx="9" ry="11" fill="white" stroke="#2a2a2a" stroke-width="1.5"/>
  <line x1="142" y1="325" x2="142" y2="305" stroke="#2a2a2a" stroke-width="1.5" stroke-linecap="round"/>
  <ellipse cx="142" cy="298" rx="10" ry="12" fill="white" stroke="#2a2a2a" stroke-width="1.5"/>
  <line x1="118" y1="325" x2="118" y2="310" stroke="#2a2a2a" stroke-width="1.5" stroke-linecap="round"/>
  <ellipse cx="118" cy="304" rx="8" ry="10" fill="white" stroke="#2a2a2a" stroke-width="1.5"/>
  <line x1="134" y1="325" x2="134" y2="308" stroke="#2a2a2a" stroke-width="1.5" stroke-linecap="round"/>
  <ellipse cx="134" cy="302" rx="8" ry="10" fill="white" stroke="#2a2a2a" stroke-width="1.5"/>

  <!-- PATHS winding across map -->
  <path d="M100,310 Q130,290 170,280 Q210,268 250,290 Q280,310 300,300 Q320,292 340,310" fill="none" stroke="#2a2a2a" stroke-width="2" stroke-linecap="round" stroke-dasharray="6,4"/>
  <path d="M100,230 Q120,220 140,240 Q165,260 200,255 Q230,250 250,230 Q270,210 300,220" fill="none" stroke="#2a2a2a" stroke-width="1.8" stroke-linecap="round" stroke-dasharray="5,4"/>

  <!-- X MARKS -->
  <!-- X mark 1 -->
  <line x1="278" y1="270" x2="292" y2="284" stroke="#2a2a2a" stroke-width="2.5" stroke-linecap="round"/>
  <line x1="292" y1="270" x2="278" y2="284" stroke="#2a2a2a" stroke-width="2.5" stroke-linecap="round"/>
  <circle cx="285" cy="277" r="10" fill="none" stroke="#2a2a2a" stroke-width="1.5" stroke-dasharray="3,3"/>

  <!-- X mark 2 -->
  <line x1="168" y1="330" x2="180" y2="342" stroke="#2a2a2a" stroke-width="2.5" stroke-linecap="round"/>
  <line x1="180" y1="330" x2="168" y2="342" stroke="#2a2a2a" stroke-width="2.5" stroke-linecap="round"/>
  <circle cx="174" cy="336" r="9" fill="none" stroke="#2a2a2a" stroke-width="1.5" stroke-dasharray="3,3"/>

  <!-- X mark 3 small -->
  <line x1="318" y1="162" x2="327" y2="171" stroke="#2a2a2a" stroke-width="2" stroke-linecap="round"/>
  <line x1="327" y1="162" x2="318" y2="171" stroke="#2a2a2a" stroke-width="2" stroke-linecap="round"/>

  <!-- Map labels in corners -->
  <!-- Compass rose bottom-right of map -->
  <circle cx="320" cy="355" r="18" fill="white" stroke="#2a2a2a" stroke-width="1.5"/>
  <line x1="320" y1="335" x2="320" y2="337" stroke="#2a2a2a" stroke-width="2" stroke-linecap="round"/>
  <line x1="320" y1="373" x2="320" y2="375" stroke="#2a2a2a" stroke-width="2" stroke-linecap="round"/>
  <line x1="300" y1="355" x2="302" y2="355" stroke="#2a2a2a" stroke-width="2" stroke-linecap="round"/>
  <line x1="338" y1="355" x2="340" y2="355" stroke="#2a2a2a" stroke-width="2" stroke-linecap="round"/>
  <!-- Compass arrow N -->
  <polygon points="320,337 317,355 320,351 323,355" fill="#2a2a2a" stroke="#2a2a2a" stroke-width="1"/>
  <polygon points="320,373 317,355 320,359 323,355" fill="white" stroke="#2a2a2a" stroke-width="1"/>
  <text x="320" y="333" text-anchor="middle" font-family="Arial" font-size="8" fill="#2a2a2a">N</text>

  <!-- DECORATIVE BORDER ELEMENTS around map frame -->
  <!-- Corner compasses -->
  <circle cx="62" cy="92" r="8" fill="white" stroke="#2a2a2a" stroke-width="1.5"/>
  <line x1="62" y1="82" x2="62" y2="84" stroke="#2a2a2a" stroke-width="1.5" stroke-linecap="round"/>
  <line x1="62" y1="100" x2="62" y2="102" stroke="#2a2a2a" stroke-width="1.5" stroke-linecap="round"/>
  <line x1="52" y1="92" x2="54" y2="92" stroke="#2a2a2a" stroke-width="1.5" stroke-linecap="round"/>
  <line x1="70" y1="92" x2="72" y2="92" stroke="#2a2a2a" stroke-width="1.5" stroke-linecap="round"/>
  <polygon points="62,84 60,92 62,90 64,92" fill="#2a2a2a"/>

  <circle cx="338" cy="92" r="8" fill="white" stroke="#2a2a2a" stroke-width="1.5"/>
  <line x1="338" y1="82" x2="338" y2="84" stroke="#2a2a2a" stroke-width="1.5" stroke-linecap="round"/>
  <line x1="338" y1="100" x2="338" y2="102" stroke="#2a2a2a" stroke-width="1.5" stroke-linecap="round"/>
  <line x1="328" y1="92" x2="330" y2="92" stroke="#2a2a2a" stroke-width="1.5" stroke-linecap="round"/>
  <line x1="346" y1="92" x2="348" y2="92" stroke="#2a2a2a" stroke-width="1.5" stroke-linecap="round"/>
  <polygon points="338,84 336,92 338,90 340,92" fill="#2a2a2a"/>

  <!-- Stars in corners -->
  <line x1="60" y1="400" x2="60" y2="408" stroke="#2a2a2a" stroke-width="1.5" stroke-linecap="round"/>
  <line x1="56" y1="402" x2="64" y2="406" stroke="#2a2a2a" stroke-width="1.5" stroke-linecap="round"/>
  <line x1="64" y1="402" x2="56" y2="406" stroke="#2a2a2a" stroke-width="1.5" stroke-linecap="round"/>
  <line x1="340" y1="400" x2="340" y2="408" stroke="#2a2a2a" stroke-width="1.5" stroke-linecap="round"/>
  <line x1="336" y1="402" x2="344" y2="406" stroke="#2a2a2a" stroke-width="1.5" stroke-linecap="round"/>
  <line x1="344" y1="402" x2="336" y2="406" stroke="#2a2a2a" stroke-width="1.5" stroke-linecap="round"/>

  <!-- ===== SPARROW RAON in bottom-left corner with compass ===== -->
  <!-- Body small -->
  <ellipse cx="86" cy="368" rx="16" ry="13" fill="white" stroke="#2a2a2a" stroke-width="2.5" stroke-linecap="round" stroke-linejoin="round"/>
  <!-- Tail -->
  <path d="M71,370 Q63,377 58,373 Q63,368 70,366 Z" fill="white" stroke="#2a2a2a" stroke-width="2" stroke-linecap="round" stroke-linejoin="round"/>
  <line x1="63" y1="370" x2="58" y2="374" stroke="#2a2a2a" stroke-width="1.3" stroke-linecap="round"/>
  <!-- Head -->
  <circle cx="97" cy="356" r="11" fill="white" stroke="#2a2a2a" stroke-width="2.5"/>
  <!-- Hat -->
  <ellipse cx="97" cy="347" rx="13" ry="3.5" fill="white" stroke="#2a2a2a" stroke-width="1.8"/>
  <path d="M88,347 Q90,340 97,338 Q104,340 106,347" fill="white" stroke="#2a2a2a" stroke-width="1.8" stroke-linecap="round"/>
  <!-- Beak -->
  <polygon points="106,353 114,351 108,358" fill="white" stroke="#2a2a2a" stroke-width="1.8" stroke-linejoin="round"/>
  <!-- Eye -->
  <circle cx="101" cy="352" r="4" fill="white" stroke="#2a2a2a" stroke-width="1.8"/>
  <circle cx="102" cy="352" r="2" fill="#2a2a2a"/>
  <circle cx="103" cy="350.5" r="0.8" fill="white"/>
  <!-- Eyebrow -->
  <path d="M98,347 Q101,345 104,347" fill="none" stroke="#2a2a2a" stroke-width="1.5" stroke-linecap="round"/>
  <!-- Wing -->
  <path d="M84,363 Q77,368 78,376 Q85,377 94,375 Q93,367 87,363 Z" fill="white" stroke="#2a2a2a" stroke-width="2" stroke-linecap="round" stroke-linejoin="round"/>
  <!-- Feet -->
  <line x1="87" y1="381" x2="87" y2="388" stroke="#2a2a2a" stroke-width="1.8" stroke-linecap="round"/>
  <line x1="84" y1="388" x2="90" y2="388" stroke="#2a2a2a" stroke-width="1.5" stroke-linecap="round"/>
  <line x1="94" y1="381" x2="94" y2="388" stroke="#2a2a2a" stroke-width="1.8" stroke-linecap="round"/>
  <line x1="91" y1="388" x2="97" y2="388" stroke="#2a2a2a" stroke-width="1.5" stroke-linecap="round"/>
  <!-- Compass held with wing -->
  <circle cx="116" cy="365" r="9" fill="white" stroke="#2a2a2a" stroke-width="2"/>
  <circle cx="116" cy="365" r="6" fill="white" stroke="#2a2a2a" stroke-width="1.2"/>
  <line x1="116" y1="357" x2="116" y2="359" stroke="#2a2a2a" stroke-width="1.5" stroke-linecap="round"/>
  <line x1="116" y1="371" x2="116" y2="373" stroke="#2a2a2a" stroke-width="1.5" stroke-linecap="round"/>
  <line x1="108" y1="365" x2="110" y2="365" stroke="#2a2a2a" stroke-width="1.5" stroke-linecap="round"/>
  <line x1="122" y1="365" x2="124" y2="365" stroke="#2a2a2a" stroke-width="1.5" stroke-linecap="round"/>
  <polygon points="116,359 114.5,365 116,363 117.5,365" fill="#2a2a2a"/>

  <!-- Activity prompt -->
  <text x="200" y="476" text-anchor="middle" font-family="'Noto Sans KR',Arial,sans-serif" font-size="13" fill="#555">
    <tspan x="200" dy="0">지도에 내가 가보고 싶은 장소를</tspan>
    <tspan x="200" dy="18">표시해 보세요.</tspan>
  </text>
  <text x="200" y="540" text-anchor="middle" font-family="'Noto Sans KR',Arial,sans-serif" font-size="10" fill="#aaa">마음마을 © 색칠공부</text>
</svg>
