<svg xmlns="http://www.w3.org/2000/svg" viewBox="0 0 400 560">
  <rect width="400" height="560" fill="white"/>
  <rect x="8" y="8" width="384" height="544" rx="14" fill="none" stroke="#2a2a2a" stroke-width="3"/>
  <rect x="16" y="16" width="368" height="528" rx="10" fill="none" stroke="#2a2a2a" stroke-width="1"/>
  <text x="200" y="50" text-anchor="middle" font-family="'Noto Sans KR',Arial,sans-serif" font-size="20" font-weight="bold" fill="#2a2a2a">새 친구를 만난 라온</text>
  <line x1="40" y1="62" x2="360" y2="62" stroke="#2a2a2a" stroke-width="1.5" stroke-dasharray="5,4"/>

  <!-- Ground / meadow -->
  <ellipse cx="200" cy="430" rx="160" ry="20" fill="white" stroke="#2a2a2a" stroke-width="2"/>
  <line x1="34" y1="432" x2="366" y2="432" stroke="#2a2a2a" stroke-width="2.5" stroke-linecap="round"/>
  <!-- Grass tufts -->
  <path d="M80,432 Q82,420 84,432" fill="none" stroke="#2a2a2a" stroke-width="1.8" stroke-linecap="round"/>
  <path d="M86,432 Q88,423 90,432" fill="none" stroke="#2a2a2a" stroke-width="1.8" stroke-linecap="round"/>
  <path d="M150,432 Q152,421 154,432" fill="none" stroke="#2a2a2a" stroke-width="1.8" stroke-linecap="round"/>
  <path d="M240,432 Q242,422 244,432" fill="none" stroke="#2a2a2a" stroke-width="1.8" stroke-linecap="round"/>
  <path d="M310,432 Q312,421 314,432" fill="none" stroke="#2a2a2a" stroke-width="1.8" stroke-linecap="round"/>
  <path d="M316,432 Q318,424 320,432" fill="none" stroke="#2a2a2a" stroke-width="1.8" stroke-linecap="round"/>
  <!-- Small flowers in grass -->
  <circle cx="110" cy="427" r="4" fill="white" stroke="#2a2a2a" stroke-width="1.5"/>
  <circle cx="108" cy="421" r="3.5" fill="white" stroke="#2a2a2a" stroke-width="1.5"/>
  <circle cx="114" cy="421" r="3.5" fill="white" stroke="#2a2a2a" stroke-width="1.5"/>
  <circle cx="112" cy="430" r="3" fill="white" stroke="#2a2a2a" stroke-width="1.5"/>
  <circle cx="106" cy="427" r="3" fill="white" stroke="#2a2a2a" stroke-width="1.5"/>
  <line x1="110" y1="431" x2="110" y2="440" stroke="#2a2a2a" stroke-width="1.5" stroke-linecap="round"/>

  <circle cx="290" cy="427" r="4" fill="white" stroke="#2a2a2a" stroke-width="1.5"/>
  <circle cx="288" cy="421" r="3.5" fill="white" stroke="#2a2a2a" stroke-width="1.5"/>
  <circle cx="294" cy="421" r="3.5" fill="white" stroke="#2a2a2a" stroke-width="1.5"/>
  <circle cx="292" cy="430" r="3" fill="white" stroke="#2a2a2a" stroke-width="1.5"/>
  <circle cx="286" cy="427" r="3" fill="white" stroke="#2a2a2a" stroke-width="1.5"/>
  <line x1="290" y1="431" x2="290" y2="440" stroke="#2a2a2a" stroke-width="1.5" stroke-linecap="round"/>

  <!-- Soft background circles / scene -->
  <circle cx="200" cy="260" r="130" fill="white" stroke="#2a2a2a" stroke-width="1" stroke-dasharray="4,6"/>

  <!-- STARS OF CONNECTION between the two characters -->
  <!-- Central stars -->
  <text x="200" y="280" text-anchor="middle" font-family="Arial" font-size="18" fill="none" stroke="#2a2a2a" stroke-width="1.5">✦</text>
  <text x="200" y="260" text-anchor="middle" font-family="Arial" font-size="12" fill="none" stroke="#2a2a2a" stroke-width="1.2">✦</text>
  <text x="192" y="272" text-anchor="middle" font-family="Arial" font-size="10" fill="none" stroke="#2a2a2a" stroke-width="1">✦</text>
  <text x="208" y="272" text-anchor="middle" font-family="Arial" font-size="10" fill="none" stroke="#2a2a2a" stroke-width="1">✦</text>
  <!-- Star dots drawn as small asterisks / 6-pointed shapes -->
  <line x1="200" y1="262" x2="200" y2="270" stroke="#2a2a2a" stroke-width="1.5" stroke-linecap="round"/>
  <line x1="196" y1="264" x2="204" y2="272" stroke="#2a2a2a" stroke-width="1.5" stroke-linecap="round"/>
  <line x1="204" y1="264" x2="196" y2="272" stroke="#2a2a2a" stroke-width="1.5" stroke-linecap="round"/>

  <line x1="200" y1="282" x2="200" y2="292" stroke="#2a2a2a" stroke-width="1.8" stroke-linecap="round"/>
  <line x1="195" y1="285" x2="205" y2="289" stroke="#2a2a2a" stroke-width="1.8" stroke-linecap="round"/>
  <line x1="205" y1="285" x2="195" y2="289" stroke="#2a2a2a" stroke-width="1.8" stroke-linecap="round"/>

  <line x1="186" y1="272" x2="186" y2="280" stroke="#2a2a2a" stroke-width="1.3" stroke-linecap="round"/>
  <line x1="182" y1="274" x2="190" y2="278" stroke="#2a2a2a" stroke-width="1.3" stroke-linecap="round"/>
  <line x1="190" y1="274" x2="182" y2="278" stroke="#2a2a2a" stroke-width="1.3" stroke-linecap="round"/>

  <line x1="214" y1="272" x2="214" y2="280" stroke="#2a2a2a" stroke-width="1.3" stroke-linecap="round"/>
  <line x1="210" y1="274" x2="218" y2="278" stroke="#2a2a2a" stroke-width="1.3" stroke-linecap="round"/>
  <line x1="218" y1="274" x2="210" y2="278" stroke="#2a2a2a" stroke-width="1.3" stroke-linecap="round"/>

  <!-- ===== SPARROW RAON left side, facing right ===== -->
  <!-- Body -->
  <ellipse cx="128" cy="360" rx="28" ry="23" fill="white" stroke="#2a2a2a" stroke-width="2.8" stroke-linecap="round" stroke-linejoin="round"/>
  <!-- Tail fan -->
  <path d="M101,362 Q88,374 81,368 Q88,359 100,357 Z" fill="white" stroke="#2a2a2a" stroke-width="2.5" stroke-linecap="round" stroke-linejoin="round"/>
  <line x1="89" y1="363" x2="82" y2="369" stroke="#2a2a2a" stroke-width="1.5" stroke-linecap="round"/>
  <line x1="91" y1="369" x2="84" y2="375" stroke="#2a2a2a" stroke-width="1.5" stroke-linecap="round"/>
  <!-- Head -->
  <circle cx="147" cy="338" r="18" fill="white" stroke="#2a2a2a" stroke-width="2.8"/>
  <!-- Beak -->
  <polygon points="162,335 173,332 164,342" fill="white" stroke="#2a2a2a" stroke-width="2" stroke-linejoin="round"/>
  <!-- Eye wide, curious -->
  <circle cx="154" cy="333" r="6.5" fill="white" stroke="#2a2a2a" stroke-width="2"/>
  <circle cx="155" cy="333" r="3.5" fill="#2a2a2a"/>
  <circle cx="157" cy="331" r="1.3" fill="white"/>
  <!-- Eyebrow raised -->
  <path d="M149,326 Q154,322 159,325" fill="none" stroke="#2a2a2a" stroke-width="2" stroke-linecap="round"/>
  <!-- Wing folded -->
  <path d="M124,352 Q113,360 115,374 Q124,376 140,373 Q139,361 130,352 Z" fill="white" stroke="#2a2a2a" stroke-width="2.5" stroke-linecap="round" stroke-linejoin="round"/>
  <line x1="116" y1="362" x2="136" y2="365" stroke="#2a2a2a" stroke-width="1.3" stroke-linecap="round"/>
  <line x1="115" y1="368" x2="136" y2="371" stroke="#2a2a2a" stroke-width="1.3" stroke-linecap="round"/>
  <!-- Feet standing -->
  <line x1="130" y1="383" x2="128" y2="393" stroke="#2a2a2a" stroke-width="2" stroke-linecap="round"/>
  <line x1="125" y1="393" x2="128" y2="393" stroke="#2a2a2a" stroke-width="1.8" stroke-linecap="round"/>
  <line x1="131" y1="393" x2="128" y2="393" stroke="#2a2a2a" stroke-width="1.8" stroke-linecap="round"/>
  <line x1="128" y1="393" x2="128" y2="396" stroke="#2a2a2a" stroke-width="1.8" stroke-linecap="round"/>
  <line x1="140" y1="383" x2="140" y2="393" stroke="#2a2a2a" stroke-width="2" stroke-linecap="round"/>
  <line x1="137" y1="393" x2="140" y2="393" stroke="#2a2a2a" stroke-width="1.8" stroke-linecap="round"/>
  <line x1="143" y1="393" x2="140" y2="393" stroke="#2a2a2a" stroke-width="1.8" stroke-linecap="round"/>
  <line x1="140" y1="393" x2="140" y2="396" stroke="#2a2a2a" stroke-width="1.8" stroke-linecap="round"/>

  <!-- SPEECH BUBBLE from Raon (empty) -->
  <ellipse cx="140" cy="305" rx="38" ry="22" fill="white" stroke="#2a2a2a" stroke-width="2"/>
  <polygon points="150,325 158,336 162,325" fill="white" stroke="#2a2a2a" stroke-width="2" stroke-linejoin="round"/>

  <!-- ===== NEW FRIEND: HEDGEHOG right side ===== -->
  <!-- Hedgehog body (round with spiky back) -->
  <!-- Belly/body smooth -->
  <ellipse cx="272" cy="370" rx="32" ry="24" fill="white" stroke="#2a2a2a" stroke-width="2.8"/>
  <!-- Spiky back overlay -->
  <path d="M242,362 Q248,340 258,330 Q265,342 272,348 Q280,340 290,330 Q298,342 302,362" fill="white" stroke="#2a2a2a" stroke-width="2.5" stroke-linecap="round" stroke-linejoin="round"/>
  <!-- Spines -->
  <line x1="252" y1="346" x2="248" y2="332" stroke="#2a2a2a" stroke-width="1.8" stroke-linecap="round"/>
  <line x1="259" y1="338" x2="256" y2="323" stroke="#2a2a2a" stroke-width="1.8" stroke-linecap="round"/>
  <line x1="267" y1="335" x2="265" y2="320" stroke="#2a2a2a" stroke-width="1.8" stroke-linecap="round"/>
  <line x1="275" y1="336" x2="274" y2="321" stroke="#2a2a2a" stroke-width="1.8" stroke-linecap="round"/>
  <line x1="283" y1="338" x2="283" y2="323" stroke="#2a2a2a" stroke-width="1.8" stroke-linecap="round"/>
  <line x1="291" y1="344" x2="294" y2="330" stroke="#2a2a2a" stroke-width="1.8" stroke-linecap="round"/>
  <!-- Hedgehog head -->
  <ellipse cx="248" cy="368" rx="18" ry="16" fill="white" stroke="#2a2a2a" stroke-width="2.5"/>
  <!-- Snout -->
  <ellipse cx="234" cy="372" rx="10" ry="8" fill="white" stroke="#2a2a2a" stroke-width="2"/>
  <!-- Nose -->
  <circle cx="228" cy="370" r="3" fill="#2a2a2a" stroke="#2a2a2a" stroke-width="1"/>
  <!-- Hedgehog eye wide curious -->
  <circle cx="243" cy="362" r="5.5" fill="white" stroke="#2a2a2a" stroke-width="2"/>
  <circle cx="244" cy="362" r="3" fill="#2a2a2a"/>
  <circle cx="245.5" cy="360.5" r="1.2" fill="white"/>
  <!-- Hedgehog eyebrow -->
  <path d="M239,356 Q243,353 247,355" fill="none" stroke="#2a2a2a" stroke-width="1.8" stroke-linecap="round"/>
  <!-- Small hedgehog feet -->
  <ellipse cx="258" cy="392" rx="8" ry="5" fill="white" stroke="#2a2a2a" stroke-width="1.8"/>
  <ellipse cx="280" cy="392" rx="8" ry="5" fill="white" stroke="#2a2a2a" stroke-width="1.8"/>
  <!-- Toe lines -->
  <line x1="254" y1="394" x2="253" y2="397" stroke="#2a2a2a" stroke-width="1.3" stroke-linecap="round"/>
  <line x1="258" y1="395" x2="258" y2="398" stroke="#2a2a2a" stroke-width="1.3" stroke-linecap="round"/>
  <line x1="262" y1="394" x2="263" y2="397" stroke="#2a2a2a" stroke-width="1.3" stroke-linecap="round"/>

  <!-- SPEECH BUBBLE from hedgehog (empty) -->
  <ellipse cx="260" cy="310" rx="38" ry="22" fill="white" stroke="#2a2a2a" stroke-width="2"/>
  <polygon points="252,330 247,340 258,330" fill="white" stroke="#2a2a2a" stroke-width="2" stroke-linejoin="round"/>

  <!-- Activity prompt -->
  <text x="200" y="476" text-anchor="middle" font-family="'Noto Sans KR',Arial,sans-serif" font-size="13" fill="#555">
    <tspan x="200" dy="0">라온의 새 친구는 어떤 모습인가요?</tspan>
    <tspan x="200" dy="18">그려 넣어 보세요.</tspan>
  </text>
  <text x="200" y="540" text-anchor="middle" font-family="'Noto Sans KR',Arial,sans-serif" font-size="10" fill="#aaa">마음마을 © 색칠공부</text>
</svg>
