<?xml version="1.0" encoding="UTF-8"?>
<svg xmlns="http://www.w3.org/2000/svg" viewBox="0 0 400 560" width="400" height="560">
  <rect width="400" height="560" fill="white"/>
  <rect x="8" y="8" width="384" height="544" rx="14" fill="none" stroke="#2a2a2a" stroke-width="3"/>
  <rect x="16" y="16" width="368" height="528" rx="10" fill="none" stroke="#2a2a2a" stroke-width="1"/>
  <text x="200" y="50" text-anchor="middle" font-family="'Noto Sans KR',Arial,sans-serif" font-size="20" font-weight="bold" fill="#2a2a2a">즉흥 노래하는 소리</text>
  <line x1="40" y1="62" x2="360" y2="62" stroke="#2a2a2a" stroke-width="1.5" stroke-dasharray="5,4"/>

  <!-- Musical staff lines (background) -->
  <line x1="30" y1="110" x2="370" y2="110" stroke="#2a2a2a" stroke-width="1.2" opacity="0.4"/>
  <line x1="30" y1="124" x2="370" y2="124" stroke="#2a2a2a" stroke-width="1.2" opacity="0.4"/>
  <line x1="30" y1="138" x2="370" y2="138" stroke="#2a2a2a" stroke-width="1.2" opacity="0.4"/>
  <line x1="30" y1="152" x2="370" y2="152" stroke="#2a2a2a" stroke-width="1.2" opacity="0.4"/>
  <line x1="30" y1="166" x2="370" y2="166" stroke="#2a2a2a" stroke-width="1.2" opacity="0.4"/>
  <!-- Treble clef simplified -->
  <path d="M42,170 Q42,158 48,152 Q54,146 54,136 Q54,122 46,118 Q38,114 36,124 Q34,134 42,136 Q50,138 50,126" fill="none" stroke="#2a2a2a" stroke-width="2" stroke-linecap="round"/>
  <path d="M42,136 Q42,148 40,162 Q38,176 42,180" fill="none" stroke="#2a2a2a" stroke-width="2" stroke-linecap="round"/>

  <!-- Second staff -->
  <line x1="30" y1="198" x2="370" y2="198" stroke="#2a2a2a" stroke-width="1.2" opacity="0.4"/>
  <line x1="30" y1="212" x2="370" y2="212" stroke="#2a2a2a" stroke-width="1.2" opacity="0.4"/>
  <line x1="30" y1="226" x2="370" y2="226" stroke="#2a2a2a" stroke-width="1.2" opacity="0.4"/>
  <line x1="30" y1="240" x2="370" y2="240" stroke="#2a2a2a" stroke-width="1.2" opacity="0.4"/>
  <line x1="30" y1="254" x2="370" y2="254" stroke="#2a2a2a" stroke-width="1.2" opacity="0.4"/>
  <!-- Bass clef simplified -->
  <path d="M40,204 Q50,196 54,210 Q58,224 48,228" fill="none" stroke="#2a2a2a" stroke-width="2" stroke-linecap="round"/>
  <circle cx="56" cy="200" r="2.5" fill="#2a2a2a"/>
  <circle cx="56" cy="208" r="2.5" fill="#2a2a2a"/>

  <!-- Various music notes floating -->
  <!-- Quarter notes on staff 1 -->
  <ellipse cx="80" cy="138" rx="8" ry="6" fill="white" stroke="#2a2a2a" stroke-width="2" transform="rotate(-15 80 138)"/>
  <line x1="87" y1="136" x2="87" y2="110" stroke="#2a2a2a" stroke-width="2"/>
  <ellipse cx="115" cy="124" rx="8" ry="6" fill="white" stroke="#2a2a2a" stroke-width="2" transform="rotate(-15 115 124)"/>
  <line x1="122" y1="122" x2="122" y2="96" stroke="#2a2a2a" stroke-width="2"/>
  <!-- Eighth note pair beam -->
  <ellipse cx="155" cy="131" rx="8" ry="6" fill="white" stroke="#2a2a2a" stroke-width="2" transform="rotate(-15 155 131)"/>
  <line x1="162" y1="129" x2="162" y2="105" stroke="#2a2a2a" stroke-width="2"/>
  <ellipse cx="185" cy="117" rx="8" ry="6" fill="white" stroke="#2a2a2a" stroke-width="2" transform="rotate(-15 185 117)"/>
  <line x1="192" y1="115" x2="192" y2="91" stroke="#2a2a2a" stroke-width="2"/>
  <line x1="162" y1="105" x2="192" y2="91" stroke="#2a2a2a" stroke-width="3"/>
  <!-- Whole note -->
  <ellipse cx="230" cy="145" rx="10" ry="7" fill="white" stroke="#2a2a2a" stroke-width="2" transform="rotate(-15 230 145)"/>
  <ellipse cx="232" cy="145" rx="4" ry="3" fill="white" stroke="#2a2a2a" stroke-width="1"/>
  <!-- Half note -->
  <ellipse cx="270" cy="131" rx="8" ry="6" fill="white" stroke="#2a2a2a" stroke-width="2" transform="rotate(-15 270 131)"/>
  <line x1="277" y1="129" x2="277" y2="103" stroke="#2a2a2a" stroke-width="2"/>
  <!-- Notes on staff 2 -->
  <ellipse cx="80" cy="219" rx="8" ry="6" fill="white" stroke="#2a2a2a" stroke-width="2" transform="rotate(-15 80 219)"/>
  <line x1="87" y1="217" x2="87" y2="191" stroke="#2a2a2a" stroke-width="2"/>
  <path d="M87,191 Q104,185 102,200" fill="none" stroke="#2a2a2a" stroke-width="2" stroke-linecap="round"/>
  <ellipse cx="125" cy="233" rx="8" ry="6" fill="white" stroke="#2a2a2a" stroke-width="2" transform="rotate(-15 125 233)"/>
  <line x1="132" y1="231" x2="132" y2="205" stroke="#2a2a2a" stroke-width="2"/>
  <!-- Flat symbol -->
  <path d="M170,206 L170,230" stroke="#2a2a2a" stroke-width="1.5"/>
  <path d="M170,218 Q180,216 180,222 Q180,228 170,226" fill="none" stroke="#2a2a2a" stroke-width="1.5"/>

  <!-- Sparkle/star decorations -->
  <path d="M305,100 L307,93 L309,100 L316,100 L310,105 L312,112 L307,107 L302,112 L304,105 L298,100 Z" fill="white" stroke="#2a2a2a" stroke-width="1.5"/>
  <path d="M338,130 L339,125 L340,130 L345,130 L341,134 L342,139 L339,135 L336,139 L337,134 L333,130 Z" fill="white" stroke="#2a2a2a" stroke-width="1.5"/>
  <path d="M355,90 L356,86 L357,90 L361,90 L358,93 L359,97 L356,94 L353,97 L354,93 L351,90 Z" fill="white" stroke="#2a2a2a" stroke-width="1.2"/>

  <!-- Cat body -->
  <ellipse cx="200" cy="388" rx="44" ry="50" fill="white" stroke="#2a2a2a" stroke-width="3" stroke-linecap="round" stroke-linejoin="round"/>

  <!-- Microphone in right paw -->
  <!-- Arm right -->
  <path d="M242,370 Q262,348 272,330" fill="none" stroke="#2a2a2a" stroke-width="3" stroke-linecap="round"/>
  <ellipse cx="274" cy="326" rx="10" ry="9" fill="white" stroke="#2a2a2a" stroke-width="2.5"/>
  <!-- Microphone -->
  <rect x="272" y="290" width="14" height="28" rx="7" fill="white" stroke="#2a2a2a" stroke-width="2.5"/>
  <ellipse cx="279" cy="290" rx="10" ry="12" fill="white" stroke="#2a2a2a" stroke-width="2.5"/>
  <!-- Mic grid lines -->
  <line x1="272" y1="286" x2="286" y2="286" stroke="#2a2a2a" stroke-width="1"/>
  <line x1="272" y1="290" x2="286" y2="290" stroke="#2a2a2a" stroke-width="1"/>
  <line x1="272" y1="294" x2="286" y2="294" stroke="#2a2a2a" stroke-width="1"/>
  <line x1="279" y1="278" x2="279" y2="302" stroke="#2a2a2a" stroke-width="1"/>
  <line x1="274" y1="280" x2="284" y2="280" stroke="#2a2a2a" stroke-width="1"/>
  <!-- Mic stand/handle -->
  <line x1="279" y1="318" x2="279" y2="326" stroke="#2a2a2a" stroke-width="2.5"/>

  <!-- Left arm out enthusiastically -->
  <path d="M158,378 Q138,360 124,352" fill="none" stroke="#2a2a2a" stroke-width="3" stroke-linecap="round"/>
  <ellipse cx="119" cy="350" rx="12" ry="9" fill="white" stroke="#2a2a2a" stroke-width="2.5"/>

  <!-- Feet -->
  <ellipse cx="180" cy="438" rx="18" ry="10" fill="white" stroke="#2a2a2a" stroke-width="2.5"/>
  <ellipse cx="220" cy="440" rx="18" ry="10" fill="white" stroke="#2a2a2a" stroke-width="2.5"/>

  <!-- Tail -->
  <path d="M244,406 Q280,424 282,404 Q284,384 265,376 Q252,370 258,360" fill="none" stroke="#2a2a2a" stroke-width="3" stroke-linecap="round"/>

  <!-- Head -->
  <circle cx="200" cy="308" r="52" fill="white" stroke="#2a2a2a" stroke-width="3" stroke-linecap="round" stroke-linejoin="round"/>

  <!-- Ears -->
  <polygon points="155,276 146,242 178,266" fill="white" stroke="#2a2a2a" stroke-width="3" stroke-linejoin="round"/>
  <polygon points="158,273 152,254 173,267" fill="white" stroke="#2a2a2a" stroke-width="1.5"/>
  <polygon points="245,276 254,242 222,266" fill="white" stroke="#2a2a2a" stroke-width="3" stroke-linejoin="round"/>
  <polygon points="242,273 248,254 227,267" fill="white" stroke="#2a2a2a" stroke-width="1.5"/>

  <!-- Beret -->
  <ellipse cx="200" cy="266" rx="37" ry="11" fill="white" stroke="#2a2a2a" stroke-width="2.5"/>
  <path d="M163,266 Q166,238 200,236 Q234,238 237,266" fill="white" stroke="#2a2a2a" stroke-width="2.5"/>
  <circle cx="214" cy="238" r="6" fill="white" stroke="#2a2a2a" stroke-width="2"/>

  <!-- Eyes (big joyful) -->
  <ellipse cx="183" cy="306" rx="11" ry="13" fill="white" stroke="#2a2a2a" stroke-width="2.5"/>
  <circle cx="183" cy="307" r="6" fill="white" stroke="#2a2a2a" stroke-width="2"/>
  <path d="M183,303 L184.5,307 L188,307 L185,309 L186,313 L183,310 L180,313 L181,309 L178,307 L181.5,307 Z" fill="#2a2a2a"/>
  <ellipse cx="217" cy="306" rx="11" ry="13" fill="white" stroke="#2a2a2a" stroke-width="2.5"/>
  <circle cx="217" cy="307" r="6" fill="white" stroke="#2a2a2a" stroke-width="2"/>
  <path d="M217,303 L218.5,307 L222,307 L219,309 L220,313 L217,310 L214,313 L215,309 L212,307 L215.5,307 Z" fill="#2a2a2a"/>

  <!-- Big singing mouth/muzzle -->
  <ellipse cx="200" cy="328" rx="20" ry="14" fill="white" stroke="#2a2a2a" stroke-width="1.5"/>
  <path d="M200,321 Q196,317 193,321 Q190,325 196,328 Q200,331 200,331 Q200,331 204,328 Q210,325 207,321 Q204,317 200,321 Z" fill="white" stroke="#2a2a2a" stroke-width="1.5"/>
  <!-- Wide open singing mouth -->
  <path d="M188,333 Q194,346 200,348 Q206,346 212,333" fill="white" stroke="#2a2a2a" stroke-width="2" stroke-linecap="round"/>

  <!-- Whiskers -->
  <line x1="217" y1="324" x2="258" y2="316" stroke="#2a2a2a" stroke-width="1.5" stroke-linecap="round"/>
  <line x1="217" y1="328" x2="258" y2="328" stroke="#2a2a2a" stroke-width="1.5" stroke-linecap="round"/>
  <line x1="217" y1="332" x2="256" y2="340" stroke="#2a2a2a" stroke-width="1.5" stroke-linecap="round"/>
  <line x1="183" y1="324" x2="142" y2="316" stroke="#2a2a2a" stroke-width="1.5" stroke-linecap="round"/>
  <line x1="183" y1="328" x2="142" y2="328" stroke="#2a2a2a" stroke-width="1.5" stroke-linecap="round"/>
  <line x1="183" y1="332" x2="144" y2="340" stroke="#2a2a2a" stroke-width="1.5" stroke-linecap="round"/>

  <!-- Music notes from mouth -->
  <ellipse cx="170" cy="356" rx="7" ry="5" fill="white" stroke="#2a2a2a" stroke-width="1.8" transform="rotate(-20 170 356)"/>
  <line x1="176" y1="354" x2="176" y2="338" stroke="#2a2a2a" stroke-width="1.8"/>
  <ellipse cx="230" cy="352" rx="7" ry="5" fill="white" stroke="#2a2a2a" stroke-width="1.8" transform="rotate(-20 230 352)"/>
  <line x1="236" y1="350" x2="236" y2="334" stroke="#2a2a2a" stroke-width="1.8"/>
  <path d="M236,334 Q250,328 248,340" fill="none" stroke="#2a2a2a" stroke-width="1.8" stroke-linecap="round"/>

  <text x="200" y="480" text-anchor="middle" font-family="'Noto Sans KR',Arial,sans-serif" font-size="13" fill="#555">
    <tspan x="200" dy="0">소리의 악보에 내가 좋아하는</tspan>
    <tspan x="200" dy="18">노래 제목을 써 보세요.</tspan>
  </text>
  <text x="200" y="540" text-anchor="middle" font-family="'Noto Sans KR',Arial,sans-serif" font-size="10" fill="#aaa">마음마을 © 색칠공부</text>
</svg>
