<?xml version="1.0" encoding="UTF-8"?>
<svg xmlns="http://www.w3.org/2000/svg" viewBox="0 0 400 560" width="400" height="560">
  <rect width="400" height="560" fill="white"/>
  <rect x="8" y="8" width="384" height="544" rx="14" fill="none" stroke="#2a2a2a" stroke-width="3"/>
  <rect x="16" y="16" width="368" height="528" rx="10" fill="none" stroke="#2a2a2a" stroke-width="1"/>
  <text x="200" y="50" text-anchor="middle" font-family="'Noto Sans KR',Arial,sans-serif" font-size="20" font-weight="bold" fill="#2a2a2a">기쁨의 춤 소리</text>
  <line x1="40" y1="62" x2="360" y2="62" stroke="#2a2a2a" stroke-width="1.5" stroke-dasharray="5,4"/>

  <!-- Stars scattered around -->
  <path d="M52,100 L54,92 L56,100 L64,100 L58,106 L60,114 L54,108 L48,114 L50,106 L44,100 Z" fill="white" stroke="#2a2a2a" stroke-width="1.8"/>
  <path d="M338,88 L340,80 L342,88 L350,88 L344,94 L346,102 L340,96 L334,102 L336,94 L330,88 Z" fill="white" stroke="#2a2a2a" stroke-width="1.8"/>
  <path d="M362,160 L363,154 L364,160 L370,160 L366,164 L367,170 L363,166 L359,170 L360,164 L356,160 Z" fill="white" stroke="#2a2a2a" stroke-width="1.5"/>
  <path d="M30,195 L31,189 L32,195 L38,195 L34,199 L35,205 L31,201 L27,205 L28,199 L24,195 Z" fill="white" stroke="#2a2a2a" stroke-width="1.5"/>
  <path d="M365,300 L366,294 L367,300 L373,300 L369,304 L370,310 L366,306 L362,310 L363,304 L359,300 Z" fill="white" stroke="#2a2a2a" stroke-width="1.5"/>
  <path d="M28,340 L29,334 L30,340 L36,340 L32,344 L33,350 L29,346 L25,350 L26,344 L22,340 Z" fill="white" stroke="#2a2a2a" stroke-width="1.5"/>
  <!-- Small sparkle diamonds -->
  <path d="M320,110 L324,116 L328,110 L324,104 Z" fill="white" stroke="#2a2a2a" stroke-width="1.5"/>
  <path d="M72,150 L76,156 L80,150 L76,144 Z" fill="white" stroke="#2a2a2a" stroke-width="1.5"/>
  <path d="M355,240 L358,244 L361,240 L358,236 Z" fill="white" stroke="#2a2a2a" stroke-width="1.4"/>
  <path d="M42,260 L45,264 L48,260 L45,256 Z" fill="white" stroke="#2a2a2a" stroke-width="1.4"/>
  <!-- Sparkle dots -->
  <circle cx="100" cy="120" r="3" fill="white" stroke="#2a2a2a" stroke-width="1.5"/>
  <circle cx="302" cy="140" r="3" fill="white" stroke="#2a2a2a" stroke-width="1.5"/>
  <circle cx="350" cy="200" r="2.5" fill="white" stroke="#2a2a2a" stroke-width="1.5"/>
  <circle cx="55" cy="250" r="2.5" fill="white" stroke="#2a2a2a" stroke-width="1.5"/>

  <!-- Music notes floating around -->
  <ellipse cx="80" cy="180" rx="7" ry="5" fill="white" stroke="#2a2a2a" stroke-width="1.8" transform="rotate(-20 80 180)"/>
  <line x1="86" y1="178" x2="86" y2="160" stroke="#2a2a2a" stroke-width="1.8"/>
  <path d="M86,160 Q99,155 97,166" fill="none" stroke="#2a2a2a" stroke-width="1.8" stroke-linecap="round"/>

  <ellipse cx="330" cy="190" rx="7" ry="5" fill="white" stroke="#2a2a2a" stroke-width="1.8" transform="rotate(-20 330 190)"/>
  <line x1="336" y1="188" x2="336" y2="170" stroke="#2a2a2a" stroke-width="1.8"/>

  <ellipse cx="360" cy="130" rx="6" ry="4" fill="white" stroke="#2a2a2a" stroke-width="1.5" transform="rotate(-20 360 130)"/>
  <line x1="365" y1="128" x2="365" y2="114" stroke="#2a2a2a" stroke-width="1.5"/>
  <path d="M365,114 Q376,110 374,119" fill="none" stroke="#2a2a2a" stroke-width="1.5" stroke-linecap="round"/>

  <!-- Floor line -->
  <line x1="36" y1="450" x2="364" y2="450" stroke="#2a2a2a" stroke-width="2" stroke-linecap="round"/>

  <!-- Cat in energetic dance pose -->
  <!-- Body (tilted, dynamic) -->
  <ellipse cx="200" cy="350" rx="42" ry="50" fill="white" stroke="#2a2a2a" stroke-width="3" stroke-linecap="round" stroke-linejoin="round" transform="rotate(-10 200 350)"/>
  <!-- Apron flapping -->
  <path d="M166,328 Q160,345 162,378 Q173,400 198,405 Q222,400 235,375 Q240,345 238,328" fill="white" stroke="#2a2a2a" stroke-width="2" stroke-linecap="round" transform="rotate(-10 200 365)"/>

  <!-- Left arm raised up triumphantly -->
  <path d="M162,330 Q138,296 130,268" fill="none" stroke="#2a2a2a" stroke-width="3" stroke-linecap="round"/>
  <ellipse cx="127" cy="263" rx="12" ry="10" fill="white" stroke="#2a2a2a" stroke-width="2.5"/>
  <!-- Star in paw -->
  <path d="M127,258 L128.5,263 L132,263 L129.5,266 L130.5,270 L127,267 L123.5,270 L124.5,266 L122,263 L125.5,263 Z" fill="white" stroke="#2a2a2a" stroke-width="1.2"/>

  <!-- Right arm open out to side -->
  <path d="M238,332 Q265,318 285,308" fill="none" stroke="#2a2a2a" stroke-width="3" stroke-linecap="round"/>
  <ellipse cx="290" cy="306" rx="12" ry="9" fill="white" stroke="#2a2a2a" stroke-width="2.5"/>

  <!-- Left leg kicked out forward -->
  <path d="M180,395 Q160,420 145,440" fill="none" stroke="#2a2a2a" stroke-width="3" stroke-linecap="round"/>
  <ellipse cx="138" cy="444" rx="16" ry="9" fill="white" stroke="#2a2a2a" stroke-width="2.5"/>

  <!-- Right foot planted -->
  <ellipse cx="228" cy="448" rx="18" ry="10" fill="white" stroke="#2a2a2a" stroke-width="2.5"/>

  <!-- Tail swirling dramatically -->
  <path d="M242,370 Q290,358 300,336 Q310,314 286,306 Q268,300 272,284" fill="none" stroke="#2a2a2a" stroke-width="3" stroke-linecap="round"/>
  <!-- Tail tip curl -->
  <path d="M272,284 Q278,270 270,264 Q262,258 258,268" fill="none" stroke="#2a2a2a" stroke-width="2.5" stroke-linecap="round"/>

  <!-- Head (big joyful smile, tilted) -->
  <circle cx="200" cy="268" r="52" fill="white" stroke="#2a2a2a" stroke-width="3" stroke-linecap="round" stroke-linejoin="round"/>

  <!-- Ears (animated) -->
  <polygon points="155,236 144,200 178,224" fill="white" stroke="#2a2a2a" stroke-width="3" stroke-linejoin="round"/>
  <polygon points="158,233 150,212 173,226" fill="white" stroke="#2a2a2a" stroke-width="1.5"/>
  <polygon points="245,236 258,200 224,224" fill="white" stroke="#2a2a2a" stroke-width="3" stroke-linejoin="round"/>
  <polygon points="242,233 250,212 229,226" fill="white" stroke="#2a2a2a" stroke-width="1.5"/>

  <!-- Beret -->
  <ellipse cx="200" cy="226" rx="37" ry="11" fill="white" stroke="#2a2a2a" stroke-width="2.5"/>
  <path d="M163,226 Q166,196 200,194 Q234,196 237,226" fill="white" stroke="#2a2a2a" stroke-width="2.5"/>
  <circle cx="216" cy="196" r="6" fill="white" stroke="#2a2a2a" stroke-width="2"/>

  <!-- Eyes (happy curved) -->
  <!-- Left eye happy arc -->
  <path d="M170,264 Q183,254 196,264" fill="none" stroke="#2a2a2a" stroke-width="3" stroke-linecap="round"/>
  <!-- Right eye happy arc -->
  <path d="M204,264 Q217,254 230,264" fill="none" stroke="#2a2a2a" stroke-width="3" stroke-linecap="round"/>
  <!-- Eye sparkles -->
  <path d="M176,258 L177,254 L178,258 L182,258 L179,261 L180,265 L177,262 L174,265 L175,261 L172,258 Z" fill="white" stroke="#2a2a2a" stroke-width="1.2"/>
  <path d="M210,258 L211,254 L212,258 L216,258 L213,261 L214,265 L211,262 L208,265 L209,261 L206,258 Z" fill="white" stroke="#2a2a2a" stroke-width="1.2"/>

  <!-- Big happy smile muzzle -->
  <ellipse cx="200" cy="286" rx="20" ry="13" fill="white" stroke="#2a2a2a" stroke-width="1.5"/>
  <path d="M200,279 Q196,275 193,279 Q190,283 196,286 Q200,289 200,289 Q200,289 204,286 Q210,283 207,279 Q204,275 200,279 Z" fill="white" stroke="#2a2a2a" stroke-width="1.5"/>
  <!-- Big smile -->
  <path d="M186,291 Q193,302 200,304 Q207,302 214,291" fill="none" stroke="#2a2a2a" stroke-width="2" stroke-linecap="round"/>

  <!-- Whiskers -->
  <line x1="217" y1="283" x2="256" y2="276" stroke="#2a2a2a" stroke-width="1.5" stroke-linecap="round"/>
  <line x1="217" y1="287" x2="257" y2="287" stroke="#2a2a2a" stroke-width="1.5" stroke-linecap="round"/>
  <line x1="217" y1="291" x2="255" y2="298" stroke="#2a2a2a" stroke-width="1.5" stroke-linecap="round"/>
  <line x1="183" y1="283" x2="144" y2="276" stroke="#2a2a2a" stroke-width="1.5" stroke-linecap="round"/>
  <line x1="183" y1="287" x2="143" y2="287" stroke="#2a2a2a" stroke-width="1.5" stroke-linecap="round"/>
  <line x1="183" y1="291" x2="145" y2="298" stroke="#2a2a2a" stroke-width="1.5" stroke-linecap="round"/>

  <text x="200" y="480" text-anchor="middle" font-family="'Noto Sans KR',Arial,sans-serif" font-size="13" fill="#555">
    <tspan x="200" dy="0">소리 주변에 기쁨을 나타내는</tspan>
    <tspan x="200" dy="18">것들을 그려 넣어 보세요.</tspan>
  </text>
  <text x="200" y="540" text-anchor="middle" font-family="'Noto Sans KR',Arial,sans-serif" font-size="10" fill="#aaa">마음마을 © 색칠공부</text>
</svg>
