<?xml version="1.0" encoding="UTF-8"?>
<svg xmlns="http://www.w3.org/2000/svg" viewBox="0 0 400 560" width="400" height="560">
  <rect width="400" height="560" fill="white"/>
  <rect x="8" y="8" width="384" height="544" rx="14" fill="none" stroke="#2a2a2a" stroke-width="3"/>
  <rect x="16" y="16" width="368" height="528" rx="10" fill="none" stroke="#2a2a2a" stroke-width="1"/>
  <text x="200" y="50" text-anchor="middle" font-family="'Noto Sans KR',Arial,sans-serif" font-size="20" font-weight="bold" fill="#2a2a2a">소리의 무지개 공방</text>
  <line x1="40" y1="62" x2="360" y2="62" stroke="#2a2a2a" stroke-width="1.5" stroke-dasharray="5,4"/>

  <!-- Floor -->
  <line x1="40" y1="442" x2="360" y2="442" stroke="#2a2a2a" stroke-width="2" stroke-linecap="round"/>

  <!-- Wall frame left -->
  <rect x="28" y="86" width="70" height="60" rx="3" fill="white" stroke="#2a2a2a" stroke-width="2"/>
  <circle cx="52" cy="110" r="10" fill="white" stroke="#2a2a2a" stroke-width="1.5"/>
  <rect x="66" y="96" width="17" height="17" rx="2" fill="white" stroke="#2a2a2a" stroke-width="1.5"/>
  <line x1="33" y1="131" x2="93" y2="131" stroke="#2a2a2a" stroke-width="1"/>
  <line x1="63" y1="91" x2="63" y2="141" stroke="#2a2a2a" stroke-width="1"/>

  <!-- Wall frame right top -->
  <rect x="302" y="82" width="64" height="74" rx="3" fill="white" stroke="#2a2a2a" stroke-width="2"/>
  <ellipse cx="322" cy="112" rx="13" ry="8" fill="white" stroke="#2a2a2a" stroke-width="1.5"/>
  <polygon points="340,96 357,96 348,112" fill="white" stroke="#2a2a2a" stroke-width="1.5"/>
  <line x1="307" y1="130" x2="361" y2="130" stroke="#2a2a2a" stroke-width="1"/>

  <!-- Wall frame right bottom -->
  <rect x="307" y="170" width="52" height="48" rx="3" fill="white" stroke="#2a2a2a" stroke-width="2"/>
  <circle cx="333" cy="194" r="13" fill="white" stroke="#2a2a2a" stroke-width="1.5"/>

  <!-- Easel legs -->
  <line x1="157" y1="442" x2="184" y2="258" stroke="#2a2a2a" stroke-width="3" stroke-linecap="round"/>
  <line x1="243" y1="442" x2="216" y2="258" stroke="#2a2a2a" stroke-width="3" stroke-linecap="round"/>
  <line x1="200" y1="442" x2="200" y2="294" stroke="#2a2a2a" stroke-width="2.5" stroke-linecap="round"/>
  <line x1="165" y1="370" x2="235" y2="370" stroke="#2a2a2a" stroke-width="2" stroke-linecap="round"/>

  <!-- Canvas on easel -->
  <rect x="165" y="248" width="90" height="110" rx="4" fill="white" stroke="#2a2a2a" stroke-width="2.5"/>
  <path d="M174,276 Q186,266 196,276 Q206,286 216,276 Q226,266 240,276" fill="none" stroke="#2a2a2a" stroke-width="1.5" stroke-linecap="round"/>
  <circle cx="185" cy="308" r="8" fill="white" stroke="#2a2a2a" stroke-width="1.5"/>
  <ellipse cx="218" cy="316" rx="12" ry="7" fill="white" stroke="#2a2a2a" stroke-width="1.5"/>

  <!-- Shelf -->
  <rect x="44" y="198" width="86" height="11" rx="3" fill="white" stroke="#2a2a2a" stroke-width="2"/>
  <!-- Jar 1 -->
  <rect x="50" y="178" width="18" height="22" rx="4" fill="white" stroke="#2a2a2a" stroke-width="2"/>
  <rect x="53" y="174" width="12" height="6" rx="2" fill="white" stroke="#2a2a2a" stroke-width="1.5"/>
  <!-- Jar 2 -->
  <rect x="74" y="178" width="16" height="22" rx="4" fill="white" stroke="#2a2a2a" stroke-width="2"/>
  <rect x="76" y="174" width="12" height="6" rx="2" fill="white" stroke="#2a2a2a" stroke-width="1.5"/>
  <!-- Brush jar -->
  <rect x="97" y="176" width="20" height="24" rx="4" fill="white" stroke="#2a2a2a" stroke-width="2"/>
  <line x1="103" y1="162" x2="103" y2="178" stroke="#2a2a2a" stroke-width="2" stroke-linecap="round"/>
  <ellipse cx="103" cy="160" rx="3" ry="5" fill="white" stroke="#2a2a2a" stroke-width="1.5"/>
  <line x1="110" y1="159" x2="110" y2="178" stroke="#2a2a2a" stroke-width="2" stroke-linecap="round"/>
  <ellipse cx="110" cy="157" rx="3" ry="5" fill="white" stroke="#2a2a2a" stroke-width="1.5"/>
  <line x1="116" y1="162" x2="116" y2="178" stroke="#2a2a2a" stroke-width="2" stroke-linecap="round"/>
  <ellipse cx="116" cy="160" rx="3" ry="5" fill="white" stroke="#2a2a2a" stroke-width="1.5"/>

  <!-- Paint tube on floor -->
  <rect x="52" y="422" width="44" height="14" rx="7" fill="white" stroke="#2a2a2a" stroke-width="2"/>
  <ellipse cx="96" cy="429" rx="5" ry="7" fill="white" stroke="#2a2a2a" stroke-width="2"/>
  <path d="M52,429 Q34,422 29,433" fill="none" stroke="#2a2a2a" stroke-width="2" stroke-linecap="round"/>

  <!-- Palette held by arm -->
  <ellipse cx="276" cy="358" rx="38" ry="27" fill="white" stroke="#2a2a2a" stroke-width="2.5"/>
  <circle cx="260" cy="376" r="8" fill="white" stroke="#2a2a2a" stroke-width="2"/>
  <circle cx="258" cy="346" r="6" fill="white" stroke="#2a2a2a" stroke-width="1.5"/>
  <circle cx="272" cy="340" r="6" fill="white" stroke="#2a2a2a" stroke-width="1.5"/>
  <circle cx="287" cy="346" r="6" fill="white" stroke="#2a2a2a" stroke-width="1.5"/>
  <circle cx="291" cy="360" r="6" fill="white" stroke="#2a2a2a" stroke-width="1.5"/>
  <circle cx="280" cy="371" r="6" fill="white" stroke="#2a2a2a" stroke-width="1.5"/>

  <!-- Paintbrush -->
  <line x1="243" y1="308" x2="267" y2="344" stroke="#2a2a2a" stroke-width="3" stroke-linecap="round"/>
  <ellipse cx="241" cy="305" rx="5" ry="8" fill="white" stroke="#2a2a2a" stroke-width="2" transform="rotate(-40 241 305)"/>

  <!-- Cat body with apron -->
  <ellipse cx="200" cy="378" rx="44" ry="52" fill="white" stroke="#2a2a2a" stroke-width="3" stroke-linecap="round" stroke-linejoin="round"/>
  <path d="M168,352 Q165,368 168,400 Q180,418 200,420 Q220,418 232,400 Q235,368 232,352" fill="white" stroke="#2a2a2a" stroke-width="2" stroke-linecap="round"/>
  <rect x="188" y="384" width="24" height="18" rx="4" fill="white" stroke="#2a2a2a" stroke-width="1.5"/>
  <circle cx="178" cy="368" r="4" fill="white" stroke="#2a2a2a" stroke-width="1.5"/>
  <circle cx="222" cy="374" r="3" fill="white" stroke="#2a2a2a" stroke-width="1.5"/>
  <circle cx="210" cy="358" r="3.5" fill="white" stroke="#2a2a2a" stroke-width="1.5"/>

  <!-- Left arm toward palette -->
  <path d="M162,368 Q145,360 132,352" fill="none" stroke="#2a2a2a" stroke-width="3" stroke-linecap="round"/>
  <ellipse cx="127" cy="350" rx="12" ry="9" fill="white" stroke="#2a2a2a" stroke-width="2.5"/>

  <!-- Right arm holding brush -->
  <path d="M238,358 Q255,338 262,316" fill="none" stroke="#2a2a2a" stroke-width="3" stroke-linecap="round"/>
  <ellipse cx="264" cy="312" rx="10" ry="9" fill="white" stroke="#2a2a2a" stroke-width="2.5"/>

  <!-- Feet -->
  <ellipse cx="180" cy="432" rx="18" ry="10" fill="white" stroke="#2a2a2a" stroke-width="2.5"/>
  <ellipse cx="220" cy="432" rx="18" ry="10" fill="white" stroke="#2a2a2a" stroke-width="2.5"/>

  <!-- Tail -->
  <path d="M244,400 Q284,420 288,400 Q293,378 274,368 Q260,362 265,353" fill="none" stroke="#2a2a2a" stroke-width="3" stroke-linecap="round"/>

  <!-- Head -->
  <circle cx="200" cy="298" r="52" fill="white" stroke="#2a2a2a" stroke-width="3" stroke-linecap="round" stroke-linejoin="round"/>

  <!-- Ears -->
  <polygon points="155,266 146,232 178,256" fill="white" stroke="#2a2a2a" stroke-width="3" stroke-linejoin="round"/>
  <polygon points="158,263 152,244 173,257" fill="white" stroke="#2a2a2a" stroke-width="1.5"/>
  <polygon points="245,266 254,232 222,256" fill="white" stroke="#2a2a2a" stroke-width="3" stroke-linejoin="round"/>
  <polygon points="242,263 248,244 227,257" fill="white" stroke="#2a2a2a" stroke-width="1.5"/>

  <!-- Beret -->
  <ellipse cx="200" cy="256" rx="38" ry="12" fill="white" stroke="#2a2a2a" stroke-width="2.5"/>
  <path d="M162,256 Q165,226 200,224 Q235,226 238,256" fill="white" stroke="#2a2a2a" stroke-width="2.5"/>
  <circle cx="214" cy="228" r="7" fill="white" stroke="#2a2a2a" stroke-width="2"/>

  <!-- Eyes -->
  <ellipse cx="183" cy="296" rx="10" ry="12" fill="white" stroke="#2a2a2a" stroke-width="2.5"/>
  <circle cx="183" cy="297" r="5" fill="white" stroke="#2a2a2a" stroke-width="2"/>
  <path d="M183,294 L184,297 L187,297 L185,299 L186,302 L183,300 L180,302 L181,299 L179,297 L182,297 Z" fill="#2a2a2a"/>
  <ellipse cx="217" cy="296" rx="10" ry="12" fill="white" stroke="#2a2a2a" stroke-width="2.5"/>
  <circle cx="217" cy="297" r="5" fill="white" stroke="#2a2a2a" stroke-width="2"/>
  <path d="M217,294 L218,297 L221,297 L219,299 L220,302 L217,300 L214,302 L215,299 L213,297 L216,297 Z" fill="#2a2a2a"/>

  <!-- Muzzle -->
  <ellipse cx="200" cy="316" rx="18" ry="12" fill="white" stroke="#2a2a2a" stroke-width="1.5"/>
  <path d="M200,309 Q196,305 193,309 Q190,313 196,316 Q200,319 200,319 Q200,319 204,316 Q210,313 207,309 Q204,305 200,309 Z" fill="white" stroke="#2a2a2a" stroke-width="1.5"/>
  <path d="M196,319 Q200,324 204,319" fill="none" stroke="#2a2a2a" stroke-width="1.5" stroke-linecap="round"/>

  <!-- Whiskers -->
  <line x1="215" y1="313" x2="255" y2="306" stroke="#2a2a2a" stroke-width="1.5" stroke-linecap="round"/>
  <line x1="215" y1="317" x2="256" y2="317" stroke="#2a2a2a" stroke-width="1.5" stroke-linecap="round"/>
  <line x1="215" y1="321" x2="254" y2="328" stroke="#2a2a2a" stroke-width="1.5" stroke-linecap="round"/>
  <line x1="185" y1="313" x2="145" y2="306" stroke="#2a2a2a" stroke-width="1.5" stroke-linecap="round"/>
  <line x1="185" y1="317" x2="144" y2="317" stroke="#2a2a2a" stroke-width="1.5" stroke-linecap="round"/>
  <line x1="185" y1="321" x2="146" y2="328" stroke="#2a2a2a" stroke-width="1.5" stroke-linecap="round"/>

  <text x="200" y="484" text-anchor="middle" font-family="'Noto Sans KR',Arial,sans-serif" font-size="13" fill="#555">
    <tspan x="200" dy="0">기쁠 때는 어떤 색, 슬플 때는</tspan>
    <tspan x="200" dy="18">어떤 색인가요?</tspan>
  </text>
  <text x="200" y="540" text-anchor="middle" font-family="'Noto Sans KR',Arial,sans-serif" font-size="10" fill="#aaa">마음마을 © 색칠공부</text>
</svg>
